<mxfile host="app.diagrams.net" modified="2022-07-09T07:45:51.719Z" agent="5.0 (Windows NT 10.0; Win64; x64) AppleWebKit/537.36 (KHTML, like Gecko) Chrome/102.0.0.0 Safari/537.36" etag="y88PWHJCpKGC4LLo954c" version="20.0.4" type="github">
  <diagram id="Rjlpd7N6gCZyKydB-W_V" name="Page-1">
    <mxGraphModel dx="1673" dy="896" grid="1" gridSize="10" guides="1" tooltips="1" connect="1" arrows="1" fold="1" page="1" pageScale="1" pageWidth="2339" pageHeight="3300" math="0" shadow="0">
      <root>
        <mxCell id="0" />
        <mxCell id="1" parent="0" />
        <mxCell id="4mec1UbQvx5-29AByoIj-8" style="edgeStyle=orthogonalEdgeStyle;rounded=0;orthogonalLoop=1;jettySize=auto;html=1;entryX=0;entryY=0.5;entryDx=0;entryDy=0;fontSize=18;" edge="1" parent="1" source="4mec1UbQvx5-29AByoIj-4" target="4mec1UbQvx5-29AByoIj-7">
          <mxGeometry relative="1" as="geometry" />
        </mxCell>
        <mxCell id="4mec1UbQvx5-29AByoIj-9" style="edgeStyle=orthogonalEdgeStyle;rounded=0;orthogonalLoop=1;jettySize=auto;html=1;entryX=0;entryY=0.5;entryDx=0;entryDy=0;fontSize=18;" edge="1" parent="1" source="4mec1UbQvx5-29AByoIj-4" target="4mec1UbQvx5-29AByoIj-6">
          <mxGeometry relative="1" as="geometry" />
        </mxCell>
        <mxCell id="4mec1UbQvx5-29AByoIj-4" value="" style="shape=image;verticalLabelPosition=bottom;labelBackgroundColor=default;verticalAlign=top;aspect=fixed;imageAspect=0;image=data:image/png,iVBORw0KGgoAAAANSUhEUgAAAKIAAACdCAYAAAA33qNjAAAACXBIWXMAAA7EAAAOxAGVKw4bAAAgAElEQVR4Xmy9Sayl6Zae9Z2+izYjMiLbm3n70q1bHSUkUxaNaIUsPEIgMQEJJgYsMWGEQJZBQkglRvaAAQgxMBKCiQUWsmzZYGxMXVcVdfu8dbONzIiMPk7f7H3O4Xne9a9zTl78Z+7Y+/zN16z1rvZr/oU/89dOzznG4uLi8Pvs7GwsLS2N09PTnFtYWMjH8x7+9j4Pv/0sLy9znr/5nJ1Zlvd4h2Ut5pz3ra4sjpPj07qPey1/aSykrj66fK91HX3ubOEs9S+e1zXbtLi4NN1XJVjP0tLCmJ9ftveM4s9PZ2ln97Pr6z4srS7RzpG2pI6JHufnp6HHOD0b6+tLlMvPpfm4dut83HqDv5d2x9tv3hy3VsY45Pndl2N8/OnO+ObXt8Zsb3cc8ejd17bG5lgZP/7l3th7sjL+id9eGx9yz84B98xm4/T54pjTxrP5aug2P92nfmgK/U6pcGn5fJyeQLeJ3qurq9x7Oubzk7R1LJxzb/FvYQHezY6LH7nf9tM4DriZMubz+Tg7nzcJct5+r6yspD0LlCeFT6GZfT8/m+e8NGn6XMUBJ3OfrLDsCx4uLOd+60w7pyN/89tvMUJ1ll0dqJMX9+aHjP4KAO0zTB4A7RRGLwAyP/4GzgFc318d9nmIODXm1L7zrI3qj4Dx3gZ9N9py/N3tEtDpLL3tjvpdIFdAqu1fIZCnkA4F49q11a8QxfK7XZY7n1dfL8v+ankLcOYAITo6OR4bW2Msrx2NGzfOxrffuzn2dnfGNsR89Hh3PN9+NL7z3c3x/p2l8fqbt8bd6+vjG5sA4QB67tGG85Xx4eeUvXFjLCwjMIeLMBAOAqBgCq6srq4DCgGwgPCsXjBXGjUYWmE0jZpOJZwqkEth7XsEUwBFdYLOfoeGo+hc9wnwAqnXCrTwC8FQoJeXVgFRtW2oEPgErAFXK4X6XVgoXnddqWNSasvLpehsz3Jro67UB66CTwkTuOcw1L7J+AaRnWotIxG9Vo0qzdllNQFndNDfwUcKFZcFZv+8BJEAU8rspOV6P99pB1pW+aecInqBkac5V/dZ9iLPVqerruNjkeq5Bq/3F+Fsj2X2gfIb8+PSAGH8fDZWt1YVXmiAhC8ej29/9/pYWOEegLOxtDa2v9wZ79zbGO+tXB+vKOinj4/H9Y21MU7W+T3Gpx/B4EP7ezj2n65VOxbPxnvvrY4vH87H8Ys0D819AqOW0YqHY3mR52WvGo1GleCdBUwSQ9B6Lge/z04hkIeg4Lz9X1lZq/s53RpRkJbmq3tCr+WlMUNTNMBnKI8ztOna8goCW+WWENiOUlINwOIdWl3+ogUt4ww+SV/55eE52xRM8HfjzW8xGCC2lPltYWtrq+PkREYsp5BTiOA1JXRh0U5GlV5UILKVli70QkK40cbMZqepbGWlVHVEMtrzsoEhmhqWZ7p8v5sIZ9aNNo7kTfcUsApoAZ2+AYedF4i2SSDPMW/WtYr5PZlMXAmQ12QshMBs17Ol1WVWM1OtNDsCSFoBsLG5uTnExgJMEhMHe7b9+ri5sjB++mB/vDpcG7sHy+Ph/OlYW7g+zk9oD4Xfu78xDjG/e69Ox8uXs7Gxcj42KeNwtkf9N0L7JdyX+XFprFOei4Dx7/wqI/lNK7n/JHxQQYSPKI0laHMGLRpQnm+FsCQwxuk4Pj6GFroBZaa9nrrVkPaRMrxPmsxUCNHWagoFxfKWcRdaW56NE55dX9HinKXc2Ww+fU+mfQKj9Z1NeDvD3BdeUGb0eeHP/DXxXMz0YqRD0IXhpR0FUEygZAGIfb8FeaSziyvxO2z8VY3q9RUYZC3wO+X6kWB+e2jeLX8FoDXwGgSWtYy02kkBn2d0D/jy5+XnUgvYRv3IlkIgPMBxDp9vobDOPidSrbOZ0oJWtCi/MQKwirncOho3756P195YG6u0fXtnjO3t7XG0dzxev3ln7D8/HDOEYv02Jpa2W/a1tbPxve8sjx9+cD5e7KABDygH7bG/fcC99AvQra4iDKf40VwbaN1xujLOEZTFpTKXxZPSIKuhSQm4oGwfselatOUKvqTyqd6YSBC6NI8to2lg/2hJQCkQPUJ/kC5dYhKgn0CWAZahJZlxTyuftizV1hRR9AYX1mUd7Yf6W8wNfP/FqFE+HhYskCw0koYUVAXFwAQhcNT7rcgCw1Sk2r99NpI5aUvPee9sJvOpYAo2WvNpej3OAZmSJqgKDFWH14oAfgss2wEjaPuvgtB7lQsDlWJCPSMIvffkBJPHj+q87a+6qr7yvdQoMzSmfk9chgthgeDxuWgXdS+frQOg5fHyy4Xx9Mn5ePn8aCycbI7N1bvjCFaebiGQN2cBwd6rs7G9ezSOKevR9hjraJLf+N7KWF3ep5wxfv03Nse9t9YB4eK4fWcVa7QMcKBXtHiZwe6PdPWcWkc6e34xQll9LmoKHsyq5gBBK57Wc80PadVgLD6XHyfQImx8oh39DnxLCVhnac6izRmaL24Ch+fjT3J70fgS4IuU4zWPUgLlUxoMhcY81G2fOj2p2wmYeTKNU3NU4NGNtAM6vNW5ujOE4fxVKVObeTThlDRNZ8CM76GW82ita4M1lR6W50dtWEFJabAqT0YpKNVxy+/A5fJZCe5HX0lTVH6kLoeaV+AWuK1M4qbaiz5dFbo5ZcwB1iJtP9qFIbuL49WXR+Pg1RxTvT7O6Mb+/j4coY7zdc6tjuOjg/HmvcVx8x7XDnfGT360Nw6OxvijPzwB2Kvj+789xkefAdK9Exh4gsXwOsJ9BogpMMI2dJFUElqaUhbRWBNtqr02/IKVpakEktYL4ffeFmj5498FltKM4amCx+3SMYqI34Kw7q1gzjqKv5dlFmAnoaccBV46Wqb96PoDuKnebvtlm8hmdIP81l8qDVgNLeZeRpfhE4Up6XEZ+NB8tAiVc0kCVeqmAFOVF2N99KuaV+qqpktdS3SPlkR/W79l+PFoDXEV6AW0swDZugVtldOgq/plps+pnS3Pez2mogPolr+mSW6YjqRB8DGl0TI3K+ALZytjDZfk9PhkHO3sjRubW+MYMC2tzMc3v705DhaOx5PtvfH6NbTl0k2Ye2188SF+0zk+OBprheh7dnY4VtZXSQ1tjhvXr+GLnkQ4y6q0PzxFpTRWGrRQ2zSZmnu1KvxuIKk89BU9mn7e15rw6vfylUyE95/MjsLLq8Dpv+N302dKpdxyqSxLAHaAeUhmQTet22OZzXs1qOc9bE+yFQbC/9T/CIkNRijUNIyh9dVorCSIGycmd6eUthSof9NIT2pGhldk2/5kM/Y0GknzHzzTuJbMtAtQX/oudrwDCK8F5PhUHufUU8CyDeVUq2lXIKgdm27KV7cz3o/CQ7ujjfnDO7s/KwFXmQ/b2GANsDUdmFTr8jfKbMwB29tvro7Dl+Tsri+M976xiqke42vfGeODn+yP++9uja0bRMs/fTnefuv2+OTj/TE/AqhoxBlBhhrobHaGv3WKn7kxCG7HixfbAbmH2tg2LsP00I+2Vbt1fSgD8Hss6y6h3ecgxPvaAp0kV1ZAVbNJSz9qbX1RlUcfBijtNkX4jQeo299Fi/o7iuAKvxcmQLWJLd5Pz0x1W0eVU2C0vBaIxkVSSpal/zWfGh61PN3cyPUB77sAHH9IKA8b5/Neqw/EmfyrMrOalrq3O25ZMrg7awf8vUL05NFl9e8icAVBXVZp7wK295fAlJR5v2XatkvtWbXbJq9f7WcIoqTT96vgV1AsN+0QjwQSHrplS4BonzzNa6+tEZyM8eBDNdDOWOfaDaLqp58cjQ9/PBuf/Xh7fPzDI6LjrXG4A/D26PcxQeAJCeuz1bG6sBHLsrNzODbWNiv9UZ5JQGkfDo9McNs3BaeCiWXyjLqt0VTUWX0u62Gb19fXJ2G65E33/fjoKH31CN2iPAh88Ev1ClUY/zgahQ7Quq1W19llWX5H460B/W4a+rzPCFzL8ZqfCIlRizemMBmYyqqDPtjMXOCeMGzSJlU46QIeE1TRJgAyzi0nrShOfzRQaT6MJwzlN8BcpryAJKjknA3TJ+FxUxWLRt+2JY3X8hR4vN0qrJ/bipA5aTvsC85+6i6Qms+KuZLgnPc5k+/W6+9o2v5OX8pHkjheS/BgHo3ykojF59V/WicNc7JzPj7eIf3A6YMnR+Px7vFYw2p98vmrcffm1ljd2x9b1PP2fXKJP3oIOAhm9tFE+NYrmPljAiPrKyE0FVQOfywS/bF+Td7amnlH0VlaSuR6b7c1ml3Qcg+lJUWyjI9pO9NnrlU99g30whfLbl5aLndV7hVehs+0wOzd7Ig+UX8AKw2o27K8xyAkUa91IsnedwTITccYKHVWgj8uhMLftmkB37VAqpWbomaZGJ9iAlkzuNBbTPYezV87n5f3FqNlnKbRw4Y2gzWniQC1ahScMvlbAnssTblKf5vjE5vmqWyDiPN7hvbxCMA8GyCCiZj4y3Zrchps3hMAU5faOyM4CICJ2iKErK6jNWGNZFTWoAXwFJ/S3340p+d0ZHYyH88eYodJeq+MZZLRe+PwyxfjFr7gk0dPxp/9zdvj9Gh3fPKjz8fX3nx3/MHf/uF48eDBON17iaDiP81OxsHBYcz96fkRzMXHhIERTBioOdYPu2gXALPNlwBQ3BfHBn7lMgnNpaTXSvN4jwDU3HW7T07UgCWY9rpAVYLo7/7IGxWBR9encpGXfizbMj1Sdt2a3z7rPQpYPy+PGoTeozB5Tyu01KfvbRv6oRB6MrHekCI4t7q6kob2w12p10M4ju6Y1xya8t42cf6u1Esx03s0r163s2KrGllas4AkiARhneu2aBOVeHNrGXtVGK0TiU+ASLPtWJdr2Ub21RYFxgSrPpeqT5mqXN45YG0i25dOSfjb8ykPrVjtVtqPx/Hh87H99POxhhZeIXg7YpD5LiMr/+yfuTd+/c0xfu+fvjNuv31r/PxnPxsn3Pf2/bvj1757fxwe7CXAC+MYNDjnWWElyFdJgzWtm/G22b6dEE13tK9m2twksCHQ89NAaTrNMtZse6GH/j8/Dg8O8E+P4iNWZFv5yOqr/VQ5SFAeuuJK+axg7OMCtFo6A5LEBfVRSVWOsP4uPpTL1uY84+TBQAVOPhvhaSD5h+q+tYUNq+GhKT80PeyD3lOFXQ4HdqUSRuAVGIuRpj0WMGlX/a9l74EFPmcjBbBHpYoKiBe9n360X+kz3t9AbYE4Pi5ps27p51GCE/LmE0fc9gTol35qE6fzjV2mZdS9aBj+8/zx4dF46623xuxgZ5zvPEHDPRuv3YbAy4fjT370ePz00RFJlzGu3bg+3n797XF6cDKO93fHH/3gjxk1OUGIAAntmFHO4in9NpKnTzMSxbZxbgSq5uAeRyxkrrQ7hT/N0B0mVKht1om4BVuNaMxSfvPolDIcAdGE+rwjQvqO3ls0AvzTCMtV0MiZ/tv+Z0QNAW4hvUob6ebht5+0c1JQjaUGm7d6rnFQ9xZQF1viPdloD0InbWAldr4JcLXCAlH5Ui3Jfgu8ktJJeU/ANL5RguY05lhzremMwT8fRxA52LFD0RLUq6c0ReCCx7J7oFxBsX7bKii91m30vMGM12yvAG7iFDAvQajf50dm+XzlE8uMqaEsy2cEqCMKK7gN43xp7O3tjRXM9IMPfkTu7+m4++698eWDZ+Pg4fG4tbw+vvgAX/EfPRiPPvkl/dkf79y6NnYfP8ScnwAuApWkN4Ar9JBBgkptbl0Ngv7djCt/Xt+RFA+jVfqKB4f7sQgnR4cBrRaghUyaeDSP2x3qcj1v2d6fFlC3iiD3azI4NOnNc9ulH9gas59rvDghQr53+V7XAtk/f1tX80W1UEqrlBExgSayiZG6w2xNwtUCraCPRrjfSmtn+r3ufQXQqiDgowO/Slz/7pxjE8RzVX9FhJ63Ds83MwRgA8x7JbaPNbGb+H7b/hKMSgV5j2BL3ZZbCEgd5bsUwbp/+m3dpq2t6yHqoRqHyQoOuy2eH4/zg31GVDD/m0vj1cMH41//F782fvf1Mf74b/29sTp7Mo53Ho3Vk73xw3/wd8eMWTpLAHB+cjj2SHCfYt5OMWcDUDVTBWSbVfvX/YovRdvnuhfTrBXvK79rFm13eIjfCfaiVCa6dZ8tS151ZJzRDPz3vV2GGDlv2fKxtaHtKQD6ZPFQWhboql1e50po3DSMMHM0eJtXfvvxvnIxvqrsyBCshAkmhGeCj4KXkFK1TI37TjbOiGyu1nTAm2tm/znXeboCmoys6LRBoDgkQjIaw7FXeo3tYloJIJYgpoqvclcyBI06JZ1ttOUrySGu0uU16sdq5cBVz3cBTwIV6Dv1UoQzyKB2JLYEAJAKRtoCudFYBdgZPpsH3YIx9JMIuLXICcGH1DklIFtXV/PMwd5T2n84Dh++GL/8Bz8f169dH//L3/pw3Lv3BuaYh2eHY+lkn1EXpF9Ty/yxJT7zBSY8rF8jUHGSAjSUSYCimI/AQ5cAUwURf1KhMjUCDYiG1cyhB/RcA5RzGnxEEjqTT6S3faB/ndBuUOSZaGCEAV77d7IXBE8dWTtuXMI80QtCm41wAGxldS1gL0GRz9XOzG2UHyocaUd7T7EWyxluLXdC+9btUFjUtN4vBkxoL7ZzqTmN5iFas7DSlJcRo40zWZoOBlylzj3fWiOzXuK8ToTgvlRuYDABJpzmEDBea01X58ocFKgrULF8/ZoMJ06OdwDKJ6abw7bbj25XMbTTBGVmvdZHEbqkWqB6XPWLFEzLM4IMwCGmAqgGuba0Th7wlClem8yExcyiDU/mB+Ng9xn+IkQf98aP//jBWNjdHQf7T8e3fuu7Y+d4b5yt3RjX773N1LGaVnUGczV/MWUQPA6Kwk57mmGXdC3t4XnvN4fY99k+P/a5hSz9mc43f7zWPPNZ6elhmf5ui+c9Xvf+FuLVCeDeq8bzu8vzfumSjwpiorP1zu2L4Jw+F7S+0t40AnHLUIVRVtQyElo313Bf2KO20m+AGWeMo6ZiK3FoJra/rltOA+Dqbxsh2Cz3IioHrKlHTalp4kii2qjdb/XURIjkFwWs06NI4+hGrKKtDHb0/RKwKGEQQm3uvb/KlG5Xn29iFaMr3BbkITSWQcbomqh5nG+Y/uLPndHZObQ6RZqdxJDpVNdXxvd+83fG85dnY2trczx/8tnYefbJWHr5YmxtLI0f/r8/QZXcGpv33hnLN14bs8X1+FlqlvMlyravtpm2q1TsfuffBKf2KLzVfT31LrQytE8b0eA+u5jZTV4rYNXoGDSeaKGZjkDxt31u4DU9MhI2Aczvvle++Ix5SfFRmrhAXypgCjQov827YDwxuMJyFB1LiBq4JQSl0Ir+sh1h6nHN1oztg3WIH40bsNnRkhSlx48N9iiVH5LWEJqgDfVKMhM1x7wIlUtfwVxZN+Y0ifXyMQX3sjm2STIt31kxTptqLVggnCRzGnZq/8S+tCZwDqL1RqPChPYRAzoq7L/LKSdXhpnSdFXd1V811QqAX6N963lmYRxgdqM5AcWHn3zMM7OxfoOolPHlW0vQgfvnO/tj9vz5uHbz5li6fgcAk5hGiNrcRwtDM/uUaf+RiWJxC3wJcs3+aVrZl+6Tt4d31NdWTDPr7/SPj8/5KX4ZeB1BD5VOLQu4quXsd9fd/OqIvPkjsLXFDa7MWcQytFa17tX1mpBr2/w0XqxLQDc+xEi0fAPQE6mYBltPS4UjKplSRMVOcp2TnpEQNtZnW9ulYBiG15N8mLN9jUA9rNzK1jeKgBfgo9Pe4TVBaT6c6pMn1FdxqNAEcghLOy4luIhl2ZXdr3bPz2qqV4jOs95vktyjQZ3+8refInoRdMYs7BasuACiwiQ4d8pkp/WrYQTpMlp8GeAtH+MvnR+M3RevxvHtx2N983x88acfj9mrp2PT9TlHO2MZGmwymWGJ6f8H0O6c9S7LBjuUP2NygAwU6KZ0NdEeDcb6g3ZIW1EwXWuwSDfpHq05+WsNOvvpEYGDfvyqeijHfrbfbVmXfC8h8G/77PxQR8KOETr5rKaONqVsvy2jARZNB/icGmZM4DW1Y7fHPvmxbD+WdwIgfc72wN/KnJejW3m49ICjwahUyRKdPSd6Jt3BuZaIEMMOTtIsEXJtuqec2nL8lS4bn6Sy+hFtKc5ljNjt9nTZ+maaZNWFDnCDxfaFYNTZ93quO2xz7aSHnfYI0WyjROF6TfSobIBBUQPA9vpEAh+AF6efUZS505pU9AQb53tPACTzEO37nL7vzcdHf/j3cBFWBmusCGSeh05z/j7YeTXWt/bxD9MMu10AUvioK0KCpszwZ2iYSrgHk2o/sDAGevEluUdN5rqWZnLNern0zwTeKfc2fRQe720+1bdCr7uEgOny2Cibxn1RANNv72ll43V9WzvQCqzoXfFDJi7Ac6VcWnuf/v0RM4os12dK+15aTJ+3vsVGdBqdkRUd6EvN0gg2mdpaJeOLap0JxMmwT3kn77fSBsxVAlhpVqWZi+Owbq+32fTZlnbnDy6jWRscateSyjL5TeQCW+k4AW10vMqztklwZcgJCbWuntlinrLbKSC5Oe2olBV9g9gnjk7QqwUK9bM43x7Hr77g+9WYP30wjh49IHm8RxKaaJWlFeeYuzU08jjeRpMoVOXTLhqhMrR3TtS9YP5PJpLzi0uUypUL0WagI91qNCj9o15pfWY2A42dRDznXEfi/TMzF3S96de01PRdCBXa3f7pBvScwzhRgN+Ed6buQ6IoEj6dEhIHCoTlRFPTRt0Ij77XNl4ck4/t3xf8p15TYKWRS0k03mxjeBJNi4JoH4niE7ToD+qwW1ihuk1YaR4bZ0O8biP79682zutqE0Hg7z5sgOth6vkyn32twevfDfpMw5o6Z8ev1teEqPIbTK7JKJfB6/ahQZf7ZYpEl/eTxuzyQ3QYrb/qsJ/mSXfjnBTM0eNPx+FnPxu7v/zhmD36eBwDxFUiixn3vPHOu+lP8o4M/+3tvogAaEnoLFPFdlha+pJRFIYGmSwb4qOF1BCC7Gr/LCcujxEYh21a0t9DyzVD+7z3tqn0XGmb8tND/4nu9vcqLeYs0LrKO++TFkUPeVvBTxrA4b222fsiIPwtXdM2QK0m7EVSlhE+qRY5rLs1YVyQSdC6/ov7u/CgU9FQO5RFi9quYKZQXozyd1USR5hKHW1Qy+i4m+uLb6AFvBjGiwJFAxRBQ2T9ME6qtcxJnk9jlzGR+a2Ti59BOWqyFQghAdV0DdJLgbA4ynA2cyw+HUBVGEmH2RJvIig6l7ag9dXigmwi7io5xhAM386lDMmvpc0Q72R7zHaej63FGaMjHwGuZ1yoYMXRjE9+/qO0aY7PKNaXWH1nWSuYpWUmy6IOmZ3zCY+8GGvU61zAAJDc3wJ0MAOx4CiL7Q5doJ3aKH6dINHe0FYuSPuvWhLzda4w5O5MLkFrYj06BywfnGcab5d+RQilixNMFLYIXwm4waBrfVwsputUM5m0YrQR/zZgpLwGoUrJrIftUuH4kf6t5Rq0UXYIN9VPLhiWI7wnmFIo0bZgoSLJlhob5rlm8mWlVEuDo1UmrRjJnSSlO9QaqCVJgJia8bz3W24T0nFQz6W+CSgBBvyoWcB0epLUBkwIOUlZS1Nr3XQYRnpe7WQ9a5rpidA+55GyAEQTzt9aA/Ok5UDjJ+GDmfQ9Y0nd9tOn43D7xdglAp4TYMwPj8ftm68RjOBsY5rPGSk5Zqjt5vUNwM8qP5aR3rhGgCKT0wZcjOP98fCDPwHDH4+1o+fj4MVjtEmlzgS7h7TswzY2L5q2xdjil5alhSyBgUoBsHpvP2cZV4/uv+fUpBUcljsgT0swzcliGRGKY4MxQJJ7Kd/lqpM3MeGjFJIptl81v42hxot1Nn7kj+UqNO1GLJcvIFAqEvKmWh9RoLNTDRYrKx/CDnaYL2NL9Yv49H3qv43OuLHz0yaAqd3ixKvZdHCuHGfkyWqSbgHWfFsI7lpfpNdAxyNaU2GQ6IA8Ua46T8sLimWo5ejzmYCzDWr2I8dlBYWaxXIkBlpX38z+rznT6Mz1vaf4iHvk6ZjNfLo7bhCcnJKrOzioNND77703HnzysSNzTPdy5bzagHUpe6zkwzHf334VGm4winLCbBsaUEtQD1+OnV8yUYIJsLff+Uamf82X2QNi+Y6GaOjeu5DdxfYtbE6T85pKRxpmbDxtx0o49MMfC9BXgW8Q6nNdLCJTb0y52hQ0ATU0VAHT17MUbvmXbpR0ct2MdRolB+jUrbC2IikBUWCmHCy8DfC0qpMgtVa0HMvwmQZtRl2gW8x7S2E7vIXWkqrWdl4TFBbaWqgaA8OmyQAy3XN9RIK4vzpU0laEKgkUpHGeaZhl+nGo6uIZ/t7dYWwWWigI1p/y6aTP+nf7RFclP7NLTB+pqQCoiWPPmRCPPzUFYqYZTIy3lLoaLpoForiiEHqTNyTQ2H4+dp98gcZjbHjOPH/a+NFHv8ys6RZSmaqyNZgwNeP0fcF3vM/6FZjbmtHc3TLc31yYj+3PPhhHTz4aKzPKOdNEVyCSwGWiQ2m2ClhCo/hlBZok2mlrWyCF9KoP2XSyjGBMNwTlEatE33yugPFV89z8U1vFHZp42im8BlZbqEtQlf8YIHIEuBMYL/+u9l7FSbXNSF01QiPTYIBhhyzABjuQXhqyQGUHdE81tbTzQgIlcKlYjY0KoiSkGkv+ECAcOhzGt+UWIMs3kUz6pubo9E8CzHS+pjh5vz7oq1evMHc3o7m8R0B51HR6TVvl+XqEREKkvWjd7e2XmMuNEMf+abYzY2UyafJWDW1wYiTKJaYcsuj9cHcckhNcOWUuH2bKKVe/81u/NX7wgx9AIwkOuJnBXVrWRDXlLrs7g4eFkIPDfAvSE6Z+Ob9IJXaK5tRNnrG89Bin6/baRkZcFqnSVuEAACAASURBVFj9Z3pkmQUs0s72ORXP/ppFkBZ+ltkLR3a5yMnDPGtmA8EHn5NeTefKaOibTS6XzVJBxJmuwEPf3gyFYPP5AMiC4Yc040e+xYJHg83fnlPwBGSu0+ca0bnUgPq1mVdJGWpyI/+ahyndxUruLZBF+tR4gCDz22iY8+7UWvGbPE8DbYQVen81shrTDZUA3uPfIl8mCVIb2rOQwzie99OglXhqLQmXvJfRMg1srXnjxo3UW+5BSXm0BB/LCOElUky+gUtpa4l1bWvjgnjeX7sS0AdobFpKhseF0PWIsKEtB2Zz+8lY2H/JNSYuIAB+/tEf/EE05jprAqzLZwSfydxVx59R4QYftsf+eig08Unp1xk+5iK/z3EJ5pjt+c4LZvCwcxPKwASytPFZ21muSCV/DSyiSVQacUv8W9+wFMKG25twyKOAA23WgUOid47mWfPQerw/ExBUSN5jeWp3zbQh0kTjgHMCs/f13/62Xa3lCmyXQ8EX9+oAoRSqvhrYsLxe38SaldJexdCqwETvV9R8mkgDtRoQgrZBbzVQdXoVrSBQy5QXSCy3xiedFcJ1wLHMfh1G1M4StvwG6lR8AGg7lN4VIjcBEpOMBM2J8mRS5/rs8EqmqxWjrMM67ZxlS2SfLcdbBpdrYV19nykUy4k0C/6JiQv4hLOD3XGKJh34icf8lpUKpgDw+SXG5TWNBlbbTO9aXd9gquFR2mx5a0aemjYjY9rksWhkLEjJMS4xk8WZTyuY9TmrsM5Wb4/zdTMWRpeUK60FLtqkeDT5VgBEXB0zHe1i9kt4WLRr7a5Q259WFpbR4LF9vXxAei+EjtA9tFFv096ADrqpUFo5XJQnaKVDaU+fa/qbcK/flTarnpcQRPnMez5D8cE2pZ0nSKhqWoextVT2NZlSJZ1zkpBRq67SMF3AIZCi1WCGKYEqtHyaTo2YQjG1sILpMR2SDtM5rxtAdKQmYUw7ZF0IDTNAsR1JiFJGUkQQyTozsiMR0BJ9lLaAoGoOAGafjvYPqm8q1zCqtLVtsA4PAWh0XCA0r8d2GmpHk88AcvEcraOfB/P8GEycoBkFkuWYF6SQcci8vm9857fHu9/4Pu12qItn4YKKfckxZq2WNHZbEX7N8WFPjw8IoFhUj6nWd4yAAFQ6GVrPCd6kndH5Er6nmtpRnhNSKesEQtkShv6e0ma1WvxHgN0gVBiPWWJQ2T40kj4s9D11aJH7pZn3KFKXW5VQDrR25CZ8ohMrjACZ3lLTe8522nePaF6QeFUJRHNy+QKEtNvU2vz0iMAIK7kODdLe+nhnNmFqyVLpq3UuUBrAXDI7v80bhYGaNipEfR9PvpbaPVqR6zZCic78RBkSZk6+Zho+aV/qSMMpO9LI3wJQ0+yzG5totcwygcb4Rqv4QZYuUfVpDLxrVwQj4ZIuCXQMkTfwC8stQHtjCs0NSjA1rjNEsvsD0pFhrmkeY0ZfLJvrJqZBCWwqrXnEgifbpqbdZZqXRwG0tN0vfvQHKVMgLQs42r++QQRvoABRzqUFbS9BBDDUlZk2XD8hBbTAktO1VXxZTs0m2ulPrcIT26up7WfbRxbU0k5N7CHdBZh8iKaHv7XjwmV6yDIaUG0N/LsDS5VBu1NXy1ZxtPLpvgtkp4k5scU6vW6ZokTNWn5u+a7WoSb1mdagR1iZZfiRqLk/7Z80EEtLlKT6uzvm7yq0wOR5/3boyUraDOQboMbn4xmBGXOjOaBJYbpl2RCd+xASM0OnKveoc076hlzeKSMWGeoKg7iLAnrhjsyIxmNwHpKgPWCEWgezuGSaglYkchWE/CVz9BMz40WSKQBTFKpGVY2t4UKosc7QzMdowDxDsGU/69vWVkCV8XC01wptXNO3ROj22QWC0AUNhmZmUVKBHReD/vRxjFa03mv4lkaoajRjW02h4FSDLDJcmBynPOTQ35NfukJr0a7FA8EqTaVNlIH0nngWAZ9MegcN8qnB2N+CSBoJQp/tv52YYeL6lGcyLU+g044TrJXfjYcoNRph2ekLZeme2SYB6McyrU/3TPB6iJ/4iNFIcSRrEFzgXk6zKinU1Gn/G4A+YwFVqRWVJHYg0HPhLF9zUqagOu9YcxPKxpeKnigNVKg99XteZpWc2+CagzeYZpXIGg3b2jTXUP8ycgFq6Od6WE/P1pYWlpst6wSlHVXDqzUmxoSoEPEcEEN+yreUArFm+M6dO2ObuYbWa9sPWB1nOdLBgOEFexv+C//mvzMesmvDAr7fL37wd8aaMmZ/AIPj4Mdov9rwsjQ/SjYMPNPU0q5qd6d9YCqmsfnkLPq0KLQxInckCM2uxZhAUVbO4EIw4kNP7k4UA/2rtrJFHqmt/59ygcdN0wZy4YKg7GJOYglAW08tk890DtcIPK4ShzPTk7CkXOu3vqZZ897vcKsf8kZPtnq18AJlpQ2SIMaZVrpaC9Vqukq3KHn90ZtsSZGXlwQuqZAYlmcdqR9A6Nupymt4KsoyTr/5vvJjTagXswIiQcU9WWaA1tLwuV2bC5NMg/hxtpBrPOKvTavgXJdcJn3Ki/JconU+DrXpJ+4aqCh4EJmZIbgHBh3n4/nTJ2mvWlpTqdkzjbJBcLBEAvgW8w5ZujxOXu6OBz//ydg0x0g7jynTfKPPyQz7axfO0Mqvnj3N9Cnb56H2zmgF323CpHfkRs3Nd3+kv3685UrvPK+FgkfSJWY+Gqr8MenmJ6kry+der2VR2D9G0TR4xIXlCD6fb7BeBW2ASV/VdrbFZ9LPK1jwfGtsy7GtlsHISplcWJGwfZUL7rTg4Q3pGAWVdJW05DyNrhxQaa5oGM7nmwrQMVMZZfo9P6eRNjZlUk/daz3TUFc0ZWlaiZjggosyviLmDjLK7Nheza6tdN6iHXBPGIVBvyXLIDnv6o6kOnQTVKQ8oBaa0ff4uQRJNkLJF7hz/cY1pi/RFkhEf9TQxUynZCkUCkutc8Z/A/Bzx2kxiWfMsvnDv/vXCZTwLQl0stAKk76UtM1koNQ6+sHU57k5mnaR7WSX19TMCDqgtmbTRXPMfo9cSTf94AaSDDVSLJBJE36reSTFxIswGVpH68AXBbDdE+kWJQAdzulj87h5Y30+LwAjPJOiSjkTn62sWlvaXWHTjxaAfp+d0kbbRTk+16ZZTPXhWHVMcyO8nVUfaq0YKbOhMk3EcPhMnpuGe7oSzYsyWVn46kT8sDxHMlmgAcaUJe/95gH3JZTwRrD+MopzPl0T0zUaTkXyvkTZMZkCkHYJGoDBRo8sbKLjBkVKbCkHCKGzbvqH4T2uO1sm/STydC5hbBqHLVyiPfqhWeG2cXMs3GCLkGdH+HDUxFhxBCIgVMism3L5Vpucc+0Yn4dSx6pbvnItAZF3CnJ8PV0E6SaAMoau77ZIcIO2nJ/sMov7PsTQVdC3bnpDqNIpRXPKsv4aFUJL0X+oEfMrnzzkp4f0k9bSgD/yvH61YPT2WrbLPRmiq/sV4tqEoOrJMwqomnACdJtUBaUxEXAmzVN+oZsHWKfef7Wqyqu8ob7wZXBjWxEWmDg12Eb3x4sS3ooyMdYG0WU55u+s5NNMy1wILnF7T2qfaSI0UeJHwMQ+30gJ2OioADIvqE8jg/zb+ts0SVvr14Jkxy+uy6wkidVoRMWZ2eI8QgmvmQ07jHlx8F1LjB+5JmjYnTX6emKObeCOuB2+fcDgY+HabdYqf2u8YGHUyd6LCB3euRTg3uJ5BErL4Fi4DMf3dKtzVlKF04umbRQ4+q4GxTZEg0W4U7/tp++aVkZyXPE3Y5mqUbkWR2In4uU7T0x8Mqp1SNI1LNxYIJQamuOpT94uYMJfiTc9W/TnmWg4xUaBLkp1u6Ilp6OeL+G7io/Aayozz/GJZgzCJysbPEEvR8y4X0tjztJ2RsNeOZaNgBDAisS4IUtEqSD7Ik+TDIRAFisJDhkMoGzsKklivzemmSo642otg5NIgg0JEwShmuEybWDg4/WYcxogsI/Il7nKLb4ee78togkPYf46u6l6r1HWqrbMoTT7wU4Lxy+/zFR20ynLM3J6HPqa9sFDU5FzRK8ZvpxchiWG1VbRemvu7r/CtnDMljkBCOYO5/h6CwQAp6vXx417XxsvXj1hJpcgdEwU849/ZVn2PeJJv5edrEA/zEkqnGoVgWY/3VDAFIWa8dSJBNKDc+sI73E0PPc7RU4zhzmLNskEDKFLUEIWYIH2a+J0du2R+wEJsExQkcGWDx/d1a39rgvNCGj9rcKwjYlocQFCU5EyHckl8lsMFFDKZz+nDp9f1q2ijQZJrscOjfnftJxBlJG/M+4tpNpjxgRQcpOKqHcAsUrbUvKhZoM+IShmKtIDWm1AclJovZgiKi9VbKe1HIxj0hDPZxYzjXFeWb/7RG1mCOjMipagbKHGfY67tiQUEaeMPs9LTDcUcq3KGv7ZKZNb9R3UDqeYd6dzzQDcCrNizplC9fzJlwx6sKkRftgKM6TPEI6z67do1xoL3tnqLWZcU6jxrG1CXGfrtK0Z/ts52/ifsl/NAf3WnV5du4b5LA20tXV7rG7eTP0rAEN/cYZpXoUhRvHSLK4J7b5koyRTwxgAuXPF3thkUf616zfGy53t3H8GyKMxhB5tSxChZeG5I4RqLD4ba9coER4sLV8juV2Cu9SOrU+iXdo0Nn/KbdE0IqgOPVJX6hD4ANPDe+Vf8rOFgNzXApv20SbLtl9+q239dP7QCccq8Q422hQHAxd1TDyNDvRe+ALoA8ypfAsRB/rdfsufZUNph9MsXBp1nskb2iymQ5hD7bqFJTriO4Xw3Z2sPQt19s3L1UhE1llwj2WsMWmgiKREGLWV2ehhMQlmdHtwyHR7dQENUkjWWeyxQOJzc/+L8ezTX2T+n3m7tVuvj1uv3x+bN++OfSWchx35yAxjaJj9pYUZhF1RU0AcJ6IuAIBVUgonMP8Qs+v0reNXz8cGCXMGg8fZwYtxwPplU8S3b21WchfilRSXwy3xnDNpv8KY+HX6sUXwTcBrGuglcxjtMxLP3zBJsCp4lJ2lGXzH/2KkZoVJtOY05yfwhHOudzkPjaTLxEiet6aauFouk93MKziikcpvixKQnqGA9knNU+a6eSe9a5KzrfF3BULtX9ffTqAw91lCYT8FaXhK4ZlM3TTgXJdTmhKKa/m43ucz/Uw6TICPMCBcyyZn/UNNppR6qLrXGcS3kZFaGlF5u4p21QjmoPwWRGodG9rSFfTTa6Pk1oAx4Yx02ADra60SlT35DQ4lzUgKZ2YGuSilX5admag+2hs7Dz6iXl60w0L12/feJaKkPDTgoYvemdtH8g/3QVMpCCGg2lD/hBNxJxQa9w1kb5oENrwEaO3arbGKH7Z2+Go8/PAnDO1tA3Q0/bmCuTLeePf1sfX22+PRg19OOTH7JHv9wAiSynQhpqmPmD76GQGFFvY7ZpxzoXE0VjFec7fE5zpuQKJ3+ruHpj/BorCaX04DThP5Za18vNwZaS4IYLYCSD2pg7IVvOZF/W1fKlhocx0A8EwHlgFd/qZt1BEeWln+FxeoIco3/9k8XAQfeRsYl5vXeQZ6w7UMUZhHDGivgNF21lFt5YaxdP/P/cd/6WKyJSdq7NdpSy4VLDWthjNzrzQLLAu1MY4Dq7Y9SpVPjVf0IrURFuvJM84RzCRLztU3apty9C0cxguxrANN4I4Tds49ZthxZrx8+NHYYUrWna99e2zceZ9Xj/GuEycWUJfrRFxaEIaoHqaK4+/aNoEGMCWYGPIZ7010LdH0jSHw1p27WU23t42/aQCl7/ny2djHtB4xypIADQ2tupWhMk0fUO0eBtLeshbVX+lSWkUGIwS6MjKVNuiDn1NGJnX4PNPMDna3WWj1fBw+ewCtdscKIy5S0u1gzCUIhHRtCvpCeGFimknrEX7JH33qiQz8UDBtRymMapv+oOV1RC0XA76YcstsoNJX3BPLDN8RbifrqghDP5/h3gCQI+6KwAInxh+tiPq6ZXvO+2pgA9yCAcaaS5Wruo3+EuaRQkiKI5J7qdWU9Dp36SeUai8V7c77XnePlpa4ktLSpDagNUVLlQ08IYqtcWg0iDCxU2oypM3ZKbP9bQCwzTbBr421zVtElrXrlYln61nWpwTgpnICqkkr1AQKygBcZ7x6zHXPAkLi2S6n8M9M1ZwzhYs9hw+P0ZavfX3c37ozdj75KVuIfAkAWX3H/Y4q3L59ezwjoT07rNGU5DodflRTIBR0IkyI0KkmOeyz+daZWh7ix/9SGyF8TlwQxEn9zB4iDIyr02eFZs67Vs6ZjLtOgnzOXMZz1su05ktkT33SsNwnlewln7LaTxMIDYXHVQBqYQRzJrtgTXw+qwEV+ql9DRq/EyOonad+2acEgEKDctSofX/xsJ6JJXXkK6rg8ohATQGV7b8AcBPOW3txk49bkNfsoGC1MZqYNZzh9iN9Jmo2w4MVvst0oz61j3kqv/UjnN9oklM/SifXVW52Uo3QPmcCXMHn+Cqzoa9d34rPI+NX0ZIr65jRG7fxnc7HHsGDzDYveM70/tNjHob3alKHvLLrKqcsc86+ifp+5ll1jY3uHSN1sqvSbgiuQ+3Uf0dSJPq5w2aYcMdrNJ9ZgATxr7HR0gpZAonYCWCthf2PcKmxCLqusZO7ExgyUVYfyIX0aOHkVU3zAGxBqp/psCN7S00mmPoxt0b+eJ5FX9wEy9c/C01BkiMyiXKtM4Jns/1dwVnxrmYcpR7uXbjir29tsYyB7IMWzdxomezijzyQR90nLWZZyDonzwWTn8aI34nK5TBtalD7hoFgY9KUUWTQw1lB9rEVVlJ/DY7WFH639rKQUr+a4trCzL+zd4vXIGDUMOVbaN9vY9sX8H5D/pZapdBr1u05f3uPjZVR6EjM4ClvdGKxEoQ/my2Mr7//7bHNeuCM04K49cm0ciMTdwEUOyiYUjgBcKdOqdKnUWJFI/XMuZZXmGFe80ovgq91/VAnRmD6nSl9ArgXt78YJ48/JCc5G3fe+Np48+3vAkUCDXOLAEjBsf0RQgkPDWp2etFM4JlzPHbiK6D2E1+EI4Dg47FKOdIs/XZUBj/XNmVGjqaWfrx8+hkC9goBgj4IXJhrXxR+jqa3AIzioM+CTVByNZ+MmwOM+rtMp0BxGE4FYNpLnnm9QHEZ0FhKg8h7bbvtbZ75nQm/Apffuabw0Gd/l+tW1tE2W1Zb2qt0tJ6LkRVnnTACSaeLyEqe2i3olnZIow5WjblKPJ1b7oXGJQkSuiTeyhpYVl6mQR+pGpxABdqc+Y46VJaEpP1Jn5incwfdjIFS9wp/r7BN7y8++QhGEU1KcAB0RAEuR3USgdqTfufeMEcoT9FjMQsd7945jssCEJ0mmXoC4yEfnOVf3ZLd5+PJhz8b19GDzjh58vLpuLXlEoADIv7ScEcsHwiYSWPp40QI9GayBLOiQZnjTKQj3t9nhDwD6CuhlcOnTG3buFYAjb+F9XEoEFosMztig3p8Z4uJ3w3osv/gk7H2LSbNklc1I5DAnjbLF4V1mXmeZ/RtFdrpE7vVS02CgAqxQNAEwcTbujikv/xpPqkZpUcLirhUU0dZqBzwbaPRoK3tDUD5O5YNXrvoDTGH9vh/lLsUF41BDujitoOnDB/qlsRimG6DFOIoAq2rRKeynLS1k43T/pfZKeQHUDTM75KckhIbUxrsqzmiaNiAr8L8NBpJ9ePYY5thzYFl5vp0fxK5eomctw0e2eCHCN4c1ptsZvSChUynvrlTECrIAkGpp97ZItrQt4d6Dc20Sh2bzB5fRVuaHHd1XibjUq2zy/k/wnRukplAavfRA/bpM6DiDaKsxGMG6dh99SK5ue/97vfHIYnlcyZ1LvIx1bJAxmEB87uJu5AMAguhpOUZ2sxNmk5c/bcBGDchuHRVY/HzxBlFCLappOM9hMvohSlfxll7btykPifhvoArYvtP2IdRf3gOcDMxIzRz2JLlCARRybXSt9qbh6LCL4ObEnIoHV41X/OGLA41Vry4pNoKeFq6AkxpOid0CO6UL5BU46kf0AFWzWxrefWVmrsspKCtOKOfa74Wb1VKU26TsmCVaDTULlBEhUqyqdIGqt9+Gjw2xuCm1HVdU5sJWl9c3bOB4xzbuKn8DMnp3ziCMA2NRQC08bQmhOF+pUmhUKZRLOPeO18bn3322Vhj/cj5y8eAUMABPs0tTc/2HGiVBCzcb1JZk+kkCIGqj9N+jhIJ1AGgpoxClEoib9YEjFu8zswE+iIf56HbliNmX3/0ox+zSP4Zw3DOVSRiX9zMqMzW7dcYmUHD+wyacmGp9sE+Wzkb7/wzXx/f/ee+z+vSoCfoz4gEGln6nNIegXCorwRzI9Tsu2gZp7wtYPPNb47r98kOoFlme1/yllO0C2XIl4AQPvWa7T2mm3mffW7+ZPNLyuqUTAu73yoDR1a0es3TsmpOjkWAEaqqp3PF+O0Io6+2kN+2Nfy/cBHKOll3m2CvX5bhiLvRdGEsD09H4yoa0eMieqaSOK/AW9UpIKKWBeIUlLRU+JwSauXRNDDXI8DS5F75O1KgFuCahBAUl2CfngOulmUw4UJ2CW6KBps6zjeuj3vf+N548ZwhvcefjMMvPoESRMH0TUYuEbCs8HEqFqWgXczaC3benQeDNRGbcPMcM3uKFj3HnDucp9ZzIZM5SOcN7rJhkqMBDr+d4xMrME6o2Hnycuy/JHoH2EbjgrUmSFAGPpz0i9EEuKdEuMtfXx7//L/1L40/+j//gD1xAAjt2GIEyIAIXyZ0WN3cGDfu3xtHBGJHAPvAqBmzff+bvzUWr90dM+5fIkBclh74r4mWEaGAyWiXcjSFRv/yRHwodJXBks6uAKRrCL/G09SV12MKONo6Ze3M5E5Z5lUlpD2zPvkiCJtvPu/fCleUyxVf0XstJ4BFY1qen+CCqi9cAPAhzmy7RroaG0AabKgy84vf+C4SlkLSUCWOsjM2TAndOC2LTrIzSmy0ACjnVZ9NKa0I2Qy9jbP80oIwmXos1PvdGs6JD+58kJyigYrTqPh9BMBWmJ1y972D8fyjn7NbAlqFKVfrr78xFq/fhfkMVTqViXZYpqM2QDR+zZo7Z8HEcyNj/LoI1SScyTvad/zEQ6Jz0zQn7Hm9qH2LQFhmJcNXGRk64d155y41jXtToKjVeph9+nXCuPhrv3F7/IW//B+N//Tf/k/G6i5m1mQ7BngVoGmONPWuyTlC2F6/9dp4/823x8ki70uDxotowxnv6jvHhh/T5tXrr427APIxC7QWVskiZNwXhtoPGK4vbJ7U3J5/b2pp8KXPeH4+h2ehf2lSvwWIvMxKQ1JP7afFlxYQ0oPDe3uHjh70iOXgvECKYuGo3wXS4IH6o0AMuigvIAMrCqrWqhVftKk+LLTXki7d+Vf+w7/kQ56oN44LSJmg9GgyawjLisNcIF25q4rKSmLkpc+pPQvhPteHP+tyN4TvlFd3qD0zbZwTmsv6CGinS6Gx9BPVsIrTGhMR7r+X8eWDl1+MnYe/GMdPPh0rjLw4jJdNJSh2n446SUdNsMBvhygzQQDwmPLxyPbBjtqg3X7r194bX/ziRzyMh+bwI4BR05q2MsDwiQPXzqxeG29969dxFb49br92b3zx6QO2MGY3B14Cvn9jPv78f/DnxoPHj8bf/P2/zq6xmDT7CN3Wb91gV1k3Z3LsnHoNkFDnJ4x77/Cu58XrBCQbb5CoZ6sTZUgNQu5Tk7a1NGNC7uOxduMeRbkjKwuv6INujyoje1Vz/zoL9T/94T8cB88ejg32ZFxYQQDpQ5pw8YEiKBL9SQFZmsurWrACDn/k7+ahFsBnPDxXls7r8hW6SmXr8RqMrnskfrXR+xqYbda93/U9mT3PdbNoVFLoNq+WWSMcDUoLvhgL5uZIDueSrwp4DS7ySKUJ+KMcYO8RVOUoZ9hLQNEpbxfMFybA+iS++C+MVHmWn97CFAiRbUNI5ZwusbHRjfvjNtH0wbMvxt6Xn48XX3401p5+ORZNi6ABb77xbrSHmiPSzTdoT1/VtvFdMc8rBD6HrC3+yf/z0bh7+9p48jnLAHTOoWP2LESKVzZvjD/7r/75cY+hvufPX44n+IoffvAB7+JjVg6BydIamunWwviL/9lfHP/r3/gbY/cfPkYSXNuMSUTDmjPdf7WTfbdPXCtuRgBwmie0He6vc/zlZ/ind5ncTXsBiFcNsE5xK774+EOEAW0DPQ5xaZzSFj+Yf06cKU7kTO/GAumtNbShvuSGY+mYPoc1i+IhKfQt3zpgoZPyM2tR+DtslAGcC90Bifz6yoEWK+JIR2MCmSaNCwsXJtjyAGmKjIsmD/hNmdYpDRQC643WvKpCq0JvynROgGJEzBpdmOsDUaccjX5/t1TFT6QmwWmZVwORms2sya3GtgpXNVsP7ajGAM6KpCqynTkF34jQnVYpdz6rCO2MKFjTdbJwc2zcI2i4yS7+h0/HPnm3PaaFLaHRtp8/GOf4SOfrW2ORCHcpTnjlAM3uu5h9zqsptp8/4vsVCRZMJpGrDHW4zxnUtu506vePf/Kn4+U/+MFYJu0wGG1hKjZvF2BJwXg1/rV//98Yr717d/zV3/+rY+kRmv6wgrMVtJvRm/zI8lcFEb7px7oD1jlgkY9qhFM2g3/24Z+MO9/8NQC0xcuDHBhgz0X8z/httMZo/txx9UiJtGQrZSL3WCs+jx98SNvYPoLUk7va6hCUlgI0hosT0xsI8kGQXtVSbdm++l2WUX6rqen8VG6BasE1Kbl0Za9tOqXhKQ0pluoZcZ2AMgqtzL99WXaNrDdnzFig8btHTgRF/D3NiBKEL6LzWU4oNVORa27922WeTnx0KlcCFyk8+QAxqTQ+DFAio031ITQ/dgEyGQBAcI+oe/7uV9cq00vMGdT8qIHUjuXkoTHYAu6cKON8xxYHWQAAIABJREFUeWOsX7s/br1H2oSo+hVMmR9g8phAMJ6XFjdpUaMRSCBAFmr20TacE7ic0Da1f1am6dOoie03MN359I+hNDeSCz1GQM35nQPG1Tc2xsnd1fHf/+X/bixs4xrYL0z4KUB2Asca/1mCIytZAqpWoFyz7fqpmddHf8wXnB08G7sPPxzX3vkOmYKai7h0TBsZ4Vk4P4RMaJAz0joCAd9ZbSdNxYEbgc73Ho8NFpY5yHQi8M2lcs+CwZ7CnoBCchsBFN1VfGrlWvahJZxWCUJrgaXlkpfxCXlO+tkJz/kxNJSnxTcoxUZX5eq1EAi6qk3s9Mo9aWxsEG1JmSqAgM2jZ9MoKRvse6O2y/Dd1OyMiExJaRscSYxp1jcoX0FiO1NENdyVtnnONC06nXKibalXQvHdnzb93XkbHElWSCCmA/49XiwBgKaUhOCUccr2Jpq91zbw374GN9gUk8myZ8ysEZAv8bOO8SWzuIpnarFSCY0zSUILiWLfHKedGECRMJpELEB0U6UTJmKcZRLv4vjG939z/O9/5X8ea9u0hLcumJ5xBCbageibqAQmlxtj2Dpz4IC6a4Y0NBNIlHnGJvBuFn/8/PGY4YeeM2l3jmuw5JsHuLbkSyQpa3Fd3ei4MwD3tb0Is2mmF18+wNVAr0PjrbtvZnhSPvaiKLHg6sU2naWpqo+xcDyn9yJgvcfratvkGmlwsgdRHuZJK6CNi0HdKo2Y1yvuViG+gxnZTAMEvWUFLwK0JsdKdzIVxQAvZK9qDgHY+aeawVIRkCbE+1pKBK5HOheAwyjBxn3d4YBoEohev2IZS47vRj2XC5BIkHttaK5bCB/NUteXSQwBvxpFrVmSWRGY/YAwRijqIDSkaR91zfyArUB23R3snNnk7INjqgUQO6ulx1RVFh4BodpQTWkb1OBorxkpGTX7CepH32zVvBHN+Ohv/7E74mdSgxKhhoMU06gCnDWQAORnMtqREWTbkQxUWVyVbEjE+/jOSC0pJGsrm2P/81/i55IwN+EJOs/YBOrshGHVp1+MlTf4O1ZKoab9/LdIbnW+/Qjdi8pY2xqbd3hPIKksmSKNM45LuzrPKH1L8AEDglE+8+VEjcQHdKdBmKic/tpDrVgson9BajdwyraDuVbKKJv+/4ob13X67dQwrabFRAi0GNXQKsib+m/zQ1+Jjs2gmyCNaSlkacY8kngGxOWEQyQa67R/gaoPopT5hOV5CK4evPe8IEyDKIf/IwQ6+tVhwIr2jLp3zNXhqqhGiWim32UFqHzNvZ4UBWTMdv/FONl+Nl4yEnOGuVic7yQfmIVBhKXRrJiu9ISylMe0wROTqcn6F9uDJoFQXHBygqaEtniOMyvYwUN9HSfSatYZ0TEIsW2OSCTZbdvxO8Fe5SxNuUDDJHgBuWb7FM3tcgODjwX20bl7/62xxcRfx6z3GHpcPd4Ze04Po8ytN75GwOayTsHFjhRkDRZdW0OZd994L5mF9EVf2iEnDnVXuhZfVVor8KZWCqzeIwoEqIMRXIwyUGiDjgBZKEqeopMCmf0SJ15l0q/Cy9EKxWdakdgmXR4nzzTIbYN0Xe4p6xn/hUDOknGmSSpsyaEHarw4tzS884GeU3tagd9OLfLwb9e7pOHqe/UShHPSRIHbBheBLM9y0wHut2afC6ip106vsZuX4HXKlO9fcahOU2oZaRcgrAP94Bgmn53Pf8KLvRkaQ+Jv3X6dZLQzpYkjeX+eKlpTXr5qEdeoWu2ftyXRfj9JW2g2+a03k3wovuWZ+2PT0Cz3NO/ANC3nL4orBSlboAhukvFJFfn7VGHwPhaY0yfX70Qr8by7WBhMGNHnRetHr8bzBz8dr75EezvzXNAirM4UOiEgO2K48/r7383zG/Tp2fPPQ+Nx7bVxvsn7XPQ49T0VWQRO2vX4coOpeRlw0PbSkGrvCiICZIEoHSarKU88QhfOm4d0yp7KSe1WM/NbqRWoNemxlNzXdVqGyieCoDnHnWNNDycggExvGx8T7EdAyrSApQIJJdmV/B71rCYG8NDZjsAkgdcqcSrIbHgRVKLUKjXVg/6PPpkgL2I51mk7si0eWtlyfG1skq16Q1P05QyPaB7NBnbVdR1nzNbZ+fwT8nqvMIOshmMq1t0796OpDl+ZJLYPEg7dCVir/RApQsLiKMqxzaXxNXqXxwGaeENTz0nSetHS5ySvLeOUwOVAIjAPcyGJZNoD8b1H7W06hdvymQEc6/Dde+Yo3SEsyzpJwdg2zYezzc+dgItJjl+DWVzW56PutZUZr1Z7wijSN/j7dLx69BnT5Fz9tzru3FdTEtSpoWFoWzj3L1RoBKGjLaHBBISoSdoVYYvJtZ0Knc9LAS5yBJjKlP3VM4d3HmraRVyIsgY108Z7e3lrlIrKSl5PWth1PxdKTqJwLF9oI/5Qo3lzohwlarpJ4ncjraTSOlVACplMrtf8XByUUc+WNq0F1wXamFqjXztCnZZRuShNM9JDIltg9EpC2+la3gOBik/ipIdld1pl5d0p6ZcXjz/n3Sds70bHfeHi/a9/Y3zyyUfjyZePACZrhtU5MFttvuKeMag0haMiSMCM5KLvinmTgNiuLNvk73W0oYLmSM+SLgkvU3EF3uJsZfx7//V/NV6Rstl7zs5eL3gv3x6RO4HSCWPX53wO9/bzefHFh2hrNoYnAZ4cq0IF7x1+jEYJ6PSfK5jrhfW1Ou4A+kwzYlbRjM8Yd2fJ65yZK8tb7Ne9cWts3LwzDlUcCeGMPASKgY0zZIpPl5qwgBptO7GyrVPAo8aGO9lwQL+Qv7jzAtxiw1EbLkTjRmHo+/HcSgS2cCCfe/Jsg68wVljxPs8vu7fhCRNH1UjeEC3hBYDRiWyd1c4XRsvhD7ZECDqvl0RVqO+5agjlEJR4rzsvOH3Khps4j1YIESgLUQfePOWgOyZ+WiWo9nM2TQHdOl2y4OxANDjaYv/Jw2wrvIB/ZWpp7Trj0W99nZnW8/H40afj+uIRr6l1Pp99OeJdecyIBiCzTM8qwrndm/mPmMbIhYIhUNOc0oq4BAlYAF6tM6bPYHidqVkzyll64w3Afj6efv5D8MluXuvX85atDWyW2lY6nuESLK3/H+PjP/pb4507t1lU9TKjJDW7G+1vaswqJ0df4GSKflIeVBY/1eE8nkEYX370U4b/bo/N198ct994h9+vjz3fspXUWQVHobtoAlj8H61/7dqNWBpn0QsgzapRfvx2ypZvmdE+AcRnFIxoTo4AkE/SL5nUC0jha2NGZWF/vacVkxbI/0JXji472tWGcSz7mgO1guO8FWxQwRRhOcnTGwVCUG/kxP3JunNkoVIabAQEgSBUgMx9FaIDPn7nbUU2zDcQASJ3W50zju12IqqEmFevUFabhZhgMvbmqQ7cEN0gBQFwGO8lIFvEjzoiIHGo68Zr98cdFlTt7bxkmSmvrsXnWGHa1Cn1rTGdStRoKve57kwj22DahIbzG+LQdic8nDgbBaY49/Ac/+6v/Le/P/7Cv/sXx+nzZ9HOJdF5jHa5IAofiXZ9+dH5ePLwg/GH/8N/w/R+c4WM7uAP+pqLrIG/+fr45m//3nj16Udjg7btMRkVhwWGqwERXi2ODNUa6YdDl8z707TzW9fIXSNc1echrRwLXzraHvufbo9Xa7fGG9+8yUo4fOnwlWedJ0Arj+UNbTdPqHbXT7ce+ekR/lm/LgX5zw447asgjWCqsSew0pqAKpOM5bVmfwKeWJllW+UCayqwDoWKwizT8gWqrlaw7D8ZZVIjaQ6iQivKsiAPndFCbRUccyrz+LRUOPIQLTElui8dUowh13qkJL6O0sc/lcYxGBHYgERgWL9Aw+9C/SRgMgI9Y0b2GsNwq/hW248ejec7D5FG/ElGXG68+TZrh1+P6dlz4x+Whc6ZHKDvhaJPnw40g5RvTGFgkKlWdP7IVBUTJRyCu/P66+Ot+7fGDuO+H3/xfCwTrd6487Xxn/+X/9O4/8Y3xxdPyT2ekUIhqMgcu0ixeU3KwOd69NGn49Ev/pTXoLFAn7badsMu+7+Eb7e+fCN9fPniGcHFGRs8sRbFbY4px5xmQOLcPhmOYErfWBR9SwDgMFoEXV+SvxUKF5jpO6tVF49ejCcf/2zc/eb3ibiZPIHfmXfYOERJMSG9vKDVDjcKjLhkRlYeShb0af6WL+m69cu3RrUW857WYj4qLTNJlvYWhqylDv++GsT2+bhh+ePSlVu2LRn/Q7Kd/uVhuyS2jXeWTdSvFU4g7AItyIDKEN57nNFhGWk05fkdv0rpMa1CAxy28pz1xvk1JwZh4i+GuAYROvGAFJN4g+vPP/8FpuwL2omg0I7XvvatsXrtdX7jwDO+ukTqgi362W6Y/agxvbZrxohEksYyC21/DjId+TmF0Q733b/Hij2DIgB9RGS6gYn7vX/5d8ff/N/+L6aa7Y1PGUte4zW3v/7d98dHCMaSfaF/c5PL/Lfiq2kxZboBLx89HHuPHnCP8zCJyqGBlAzd+L659Rr3Q2M344QW2UeSdvnGU86GPqg4qFJuUTQNtC7QTaBUQ4Y3EIu2OINbzeifZktPj16Op7/80bjPhIxTZ+lk5AgBpCHntMd0lUGma0hyBHiYYKNy3BO1rhNDBIkgFYSCSDNuYruDkVY0ts/DoEcX4pw5AHXuUhvKfzMd+t+04iJPHUXGmfYpVRCkx8zRlQm1YG+ywfEfaFx/FxjLxpdGtCH6U35JEIiub6L45ZCsmkGbINoFnIzhvAxQa3ja1IHM4B6nk7uRkUN7y8y/O2Np5WcPPsLhV8ucjtfffC+L6k8WMIuYvTN3R2DE5JSZ0b5ijM2oKR/QQUhN9gnab8XcnBEiZd6+fSdDkboOh8wrVCNJYJOyf/LHn4+f/fiL8fThT8cWDDAgmR8tjB/8vc/Hm2/cHw8//SVbz8E47pUWLv90HXbWXzP2vP+KERE0VZZyAhF1ou9Rdr3z9ZsEE2opqK+iMx2SXF4AhyA7/IfLI+M6ao8lEvyTcnAH22w2xXl3C1MoexGXM4qWKX+JFwm9YvXhrfe/N86Y3Z2tVyLs4UDo4dxFX0GXg36EO1xM3fiNxgq1zrx8U7VavcmBcmh/BaodC+jjASqDNtomLsRMjysn+W0DqMP7LDdQEIj2Q/BMdec1uVbWatkbsoCJG6K+J+lsEyuAmoDe53OZBJvCS2sKqK5MoLnvi43ycN9rpxSZ17KDxnemOPRjQD0zrymLVzW8+uKXjBk/yvWt198d13DIvdMRAxfAn/MK2vnu40TNzo6G6pQL8RzDFe4wa5FRlA32tLnuliQQ2hdtH/DWKGdtB0w8Z188rrPj1/Zz1hLzpxFv7dKFiadth75ag3mBp8xTnPF+ley5yH0uw5zpd+0zc9tNETlCm/jbaCydeZNM/H719GH6mOvQZ81gkF021N4LaJN+tmgu8xxAkOHSW2kvsJjE1n9WcF1LolCZ3HYir5mBM4b5dr74aKwyurJ+675D4xzaYj3j0q6Waz0XS4EnGqgdo1e0kNCnX+6T+6UX5zNpWn024SJACUCLv60xVUP2KrtaBKhlxuWD58WH7bVVFsBKSTP000A3hHWLD//O1P00vCbFum53xjUBpBlNhTTGzzGRVa2bCNwDZAHqYWXN7Gymyf2C5IjJpXkPs7DR5DqKQf0nL74c27yAMaZw8/p4k9V7hwYtzq3jNRDHOPqLqHt2s8HfA4yYjiUXPsGQVRLXTvVfZ5ZNXsgD4fb0GUkAaxazbbBMlAloKq9H49Om7/3Z3xt//+//nZhOJ636UtOMSuD77jF1S3oYga6qvSgnQ5kuOaW/AvSYPp+y88QC0bE+rOSN5uF+J8K+YqqaQFTo1MDSJIyYNEL9Lj8ru/Xi2izhw0qjbmPWe0+H98dKYYJ9OaX8YL1tWR2CmNnTyg2v3HpDqMc/j5vEf9pzf2VXXS5Zrv3oQ4Bm+BMeaKqtp6+LjbhcIoujFE68EdyAesu9QPMej1rDTD852dG0Tqv9b+upNl02fbA4+QLZiUCkOyZKA0S9lNKM+NuQP6+UgCknSA8YSkP0ISSEt1UDg/kkuS8cWUN3mEwbQlgFANURwK1iVo7RcNsw6wAtaMrn2lvvj7Xbb48DHvBNTS8++gkhPv6gBHTmiX4fBFoKsBbGrVu32V/wetIhuwQtsz0iU/rje02UqZk5PQB/SQw1YiWwDQL+0R/8ITcRJAFggelyAgfx9APPEZxbTDTdYb5jdtuiQNnghvGgLEOKb773/lh455tQHpN+8mq8YrLrLjtEqPEOT3YYKfkU8+n6GdpLn6TbCkIeebdPSXNdYTJ0SVBHVC1N3WVMbqohAzrdqckC1SsxphWXCjr9VmEcPPuce9Bg15lAAeIWcSMKP5d+f9VeJlWjJf9l+1c0nDrFoDZcBUR0PjN5PLi3Biz0ByuNV5rcMgVkfeyv0wQDYoSrvgs/uSbg/FGquH5rTk8xcTbGhnmPTmv8Fwpqiejrypra8qqUqDVjtu1VOqBvhRaCgHlDEr6cIF8iKX3w7PF4ycTQZSLjm2yqtHHvnXG8ssWOrdzLrloPP/4xb4GCqZoMCeWwIfXpN8W0M4V/Z4/XpRE5J3nqUB4m+4Sp//aNKjPGa3v7tV6RdMyqAZH3HO484qWOr7H6DtOtwDCTpxKxWIGN9fGKrUdWQE2G2hCHRKwCgahfgG7eIApeYTcyVvStLL4+7t5bHm9Cq2PeTLC/jaUh6e6KQ4f+BF00kf45ZSRS5t4oAWlFe5puCoXXNIk9s9z2BIwWwgPRPtDW4FJBdGaFmv0GSfdt3oq6tfqtscD7/6zvFC2vcZVX4ftUrwXFnFrfdL791QJUtU+wRUlZ+3RvuRPVzt5LU+HKPpYc7fa1ZhVfui5J6FOGQsaWI27pCw29QAMyPQsA5YV9cpCjxpYVCphvTtDCKcDJnZmpoh+IpnRvmyX3NYRotdalCC3IVc0OLzmXb4lpVL5o25nQe08/z2yTdczK1vu/Nph/xn6ATBDAuVnDV9Pf2WAmtXuurNEuNeGhZl0G2CE1q5Ef/uExpnAW/1aQ6zOWIOXlkzIzjnpN1MjqPs2MZkoG4sjvL+5nWPCYCbPODpIeRrglqCTHAb/aMOZNx5tvBeno85+PPde1cG2BWT9Lq0yhY1OldabSzWlHRoBc/IRvGW2iSeVZ/Scqp60KdwEwEahAkMbhDIeBXvzE8tNkYE2F8/G+UxeB1/QKTv49PkSI+b1FCmz34WfsGfRNku/USvlagOzcqnmiDosICFMrmo/2KBxuICDNdFX6uBpLtMA0qBMrTODyfukasKaLWgEBWNowgyBTPXZtCoO9s9S+D9rlWuJYBXVFfrfKthFK6SES6DPxJ3Ca3efQLYIdj+QPQF0dM+Lznk3KcFLCKmbq45/9CdHnAUsy3xrX33yX+XeOJZ+OLYC3/+TReIyp3mCtsg64kx18n0ttY4K0UZZ8lKG+fsIZI84vrMCJ3wAyQMt9fF9pp3on4APcLdWLEEkzfgJxrrGOWoY4wrO/W6B3o9I+LrQI94ZecHKVdIeL9M8Wmb19QCACaefSKxMa0IJRXi7lJHcZi6OmLrA30/yWkTIu7gG0EKDR3q6X8TztiH/IvUmdTDxxtaL+rM6aZbiHpdsas5qCqW+8y/Dxg3H7rXdxqQCI94QGlOUzYpf+Jmmv1ZFmpn8w65nMa9vht3VdPTyXJ6FjAM2fTU+v+UmGgA6psBqETrQJOKfnFQiHbEsCqdxpXh5Bej4w3PB8QvZMIk0VNJMd0onK5fnkCWG4U+LzJk4+XnPOo+kM81Qbzusj1fKAHRUwMGP53htjk8F6c3krSDQj+uP5o0+ZOfOEbUWMDGti5py8YPbZo9NGcNnmmA4cHtQMkAyVwRjTK4p4ksBTW2Wc/88AmsQwGAhh6V/6mv4R9+IfLs0QmLm7R7gGefIh0Qz8H4dceokIX5Aer4lnfYtUJblV0/qB5S8v4N74sp8IKoz1YfOkYbT6h+9mhhbI+3LoXlCZo0FZ4CWQxQvP6y6cuLKwgcq3+cCaMUW5dF8+xofm/qM9hOQG5VLv3mM2fmISiFv5zSl/Wf/T0gOKVDx988v2TPQzUE16Rg06nUtbfYivKKpJE9b0f61rae+kcsQG9ydD43N8tGh5DQY88EhC28MCNFvFqOpo3VDEyUwMCojajqOsvzxJCA3MTqWRcu/Rc1OrVv7IctRUmyRtz/DFHvzpB/ics/GdX//NccxEzkOAtTav/Q8X8Ovm5AcZVIyhwLsiSCkpx5GgbIlRHTsi/aG2kDkZxhZgmj19P5nGb4/aBawYLWEEZqJ+zE78XO8x0qdTeRWbJpbaHR/3dWHmYwM6p3dBJ8dMWyCXnYrGc5rO+MD8tm4LzRbOWgK1lX1XYB36i+tTGkMmav5qK+FyYYrJFTComQRs7CfaKwMDwKeW7EplyxHYHoLDNS7WoY+LHwsJjtgZ9wapnD2CuEU2kdLHrhFOaERGQnXdlkNg8jBKo/pw1QpeaDSBRLulYa0dp99QVVpW3wpcuT9aFlrQh5r7WL5tkukRyKJTZuvEB4GZNsKPOTI7mH8lKofECeo9J2EDyiKq9+v0Z6MifSg1qYlfbiuzQhRHMUdffsgw3SeK0Hjvd/5JxiVJd4gVtN+jT37EKArONCMlbOzNLb4BScbaQQmqOa5E7Abb0B3ynj2Zo5mjS9QPoEptUHf5rLa7zZsC1wEBY0CTr1YBk4KexLGB1GTuWhtITDpkSelvR4gSXng6SygTgM3BTXRTg+l7ih8NaQ32W2eBNLSkrDZ1iTbRYJ4PCFOQ3KOLcW0En89SBpN6kyjXL+Z8GKh/b2flHzRQiGIuKadTTQe7rwh2lllS8Pl47R2W47Kg/4yRLL1RswNCp9oEvaFllXfJ/7KAavoOSivguQCwCuhKPtTW6Ae2wAU4itCkvKIApv56bjFRI4W7/ZvolSjpEp3MNYMTrtc4dPkPXouUyogEB9XsTMGf0hsyLyYZ03rNqf3MMnbH1xOCire+/ZskedmICLCes8Bpl5do3yXfZlCUxDefmWtCKAujAyuJeFnYboR5jRV5RvA1bas0tG2R+NHE08fkrB+lQY8o5rrTEDK2KZ3eUmX6U4f96Q3hPa/p8ijCTczWMZ/KcYZKA97cYxLF00NOgJWtatTsDHblSNmhXWn4vlTMu4xgPZ8+TppIn0qtnoAjoKbcfC47lUQx51QSug7ScgNXyVTZiy8+GUtMjVvGFwd2kFuTCRgEuzTj0DoojMZkamGx4aeBVHwXF0W3TGSYcHGJDwOuAp9t9V4/1uNRNOMciiMaXZDJSDuV/FByRmoYZZvK4i/k2aheD4EdIl58NIn4JpPfFR8BcLst8OzVl+P5L/9kzNEcb3//t8eBW2yYBKfQx5/8jHksMBL/zAVJghclmHqyRiXpFf0gxkm5x23pbJNmoT/Jc3JkOzce9v7WOgFLaxrvme4tCS8g5B766p40FQw7REhyfSKuZVtmE1h6Jem97kQFl6a6LQqNtm5I7/v3RH0mHUDLmOS0Q9qVEbXMYmq1QYo3fgNkjk6TXBWSq+2/yvBqo0FQgSOalcN+OOZuRuOModBlEu4rRPDbDz9jHqcu0CS89EmexS2Bh2UVp5QbAiT4Y1V0P7jPXghWv63Tj/2xTf2Jb87hc53i6Z02xFP23/a6GjFIj29DAUhNp3HsiIU3IwNOwUWDk4/STE6VKtHe15WpVZWmFe6fs27k2WcfZiz0je//VgbkfcXsMsMUC2i5DXbYInRmChaRNI1Kvo+yNcOu3zDyO6Y8o+SM6lBu2qUUYQ7aTxVfudagnBScecNaElCSdBWU/TsE1O0IoUtiJdjFlHhNZ8ovwoonk/v2NxIONwKviUFaBdfHGInH1XGsN0AsX8z2e0TL2azJ5/Vv77M9X7knWu+rvmVfL8CVpuk6HP2RPl2WGmidXGuWhTDD6CbvDFxgVvcuO1IcvXyC6Dh7GzNq/QJyUj76f6vORazWXmjDrrPqK7oqNE3P6lfV76NljVV0lxjx2dw30WTh1/6L/xv/vsyxJ72hJKO0imkGH1AjZRIrRF6jcTr97nCVdSNITBqFX5ddUfEx1k3BPPiA8WBeNcuuWXfe/w6ByTV8AfwbI1y04O6nPxwLjj7wghyH+ARegAMDp3UMVxiipMpugVJMiUCoSSaAdLvTFsooIpQGaiZn5vEVIbvQ7JZKOWpigdavgRNi+njF+HJHfF4QVjRZWsLRHcHpfWqUEDrtrDykbSltVtcC+glcOa9fiNbxXPxqha1wPzFrcg1M39DGvN7NfkQHmxQ2Wod2+mqUYVRfB1qLqNf2qqUNjLR/a2w8QKjB01R748648RZ5Rl/sDrnMH8/lrVGaQR1CWcJRQtLuW2lsaVJm1/psU1mbMvG2pY+pOxcAvLyAmyFj7Zgd91Pq1cKqQP22TZJR+mx5lZeV8Y9SVoPxGnWFWi0AQfhvhYT14dNPx5yF7ovs4vXaN7/nBGY6pZnX56AeOniyz5vfSdfoRwqq2sxRyYRURtyWDPgzJOhOrJwzkevCctd+lGmTeWolAVfM0S/MEknOBTCmHgLO3HJBiCaYQMgWxlxXo2ZSqtpBIePZ1+8xeYA6nEnjNsVPeMfLBu9QSc7P/CUh6CkpGxe116KsDhqkFX407V8zUc/ISgG4tEzVX8B0KpLtkLm2NQy0vbbFZk9KggsXZWQmjDA0i8F3wMJDoYXP84yFZJtAyl7XlZAO9OP4yD6T8tYFwkTP4NX63TdIeqvp1VSUIXb5MoVk4OnhwEHvkS7PrKvB16AroVUYiqaQIH3LkocJYymrQco3+w/hn5HldCa1hRZDJ7svAGjogcNnyWGI8jKNEsHCe/F4fDqkcI3Oz55+wl6CHzEzZWXc/vr3mbZV7xHJDrMcCXyNWkYhAAAgAElEQVQEG2ZYZzlRnn6oSJm0gjQMQ6CAZtJ75iwqcss3X3Cn1pJP+oWKRftwPuNur63yXYQVCQ6IDa5KUvv6pQSXT6t59V7B28zXPXj6bIfdu9RA9GWFBfBsAH+XV2xs3WBiLrtQ3H/na7zvhY2UpIFrSNxB1mjWICDpHiP5GsNPN2mLnwgInTXKvspIz/nx6N9eF3LyKO5PFEP5y6GrwQRlVx8Bkydltj4fbTlxu+lozrIY7rmjK7SEz7jHEOtphlFNYIOcdlUmsESI5c1Ew9AZnnu0m1DV5ca0sftjO+17u27h61Rul0MqrZgm8qty/ZrK+YRAmF2nAx2gudRQkTo7nOGqqtSG562mrB1ZYIbMCSkCzfMt9nE5Yud8Jc/Z1x71qgRNIARDCIyQbXi2PIEZlmmx0VLU1czyHt8EFQmM7wWjOOfOC8pI5ERQgtAEGQiWneyVgD5vf2LWOC9RBEcTxJGMgE++MX6ct4TaNu7dfvkyEepsn8gd7XeN3Kd4dQ5htIcmzv1yGJrc4E1TWwAym7NHo2LWoJVbs7QfajtakzRT/LtffnlVK3q9aKHJnAKm+MelNH4VsALTEa9+rq4LoApIGzSuEjR1Zn/OXZDGMOQh/qIuks9avoe9uxSECqB0kUxLuRwis6m4K5t+Al7wnnNuER2LoQuHFmwQdll+Bw/Uk/VSdrLD8wpIimHelIcmSTB350P1FiKn9LDFrykfM/gEFu5SsMWuWC8++wWSdzZuv/8brLFl7QccsyEpCyClcUqEzHBKFczmDGUUKPpeE54eahavh92nmGd2RdDPNK8oUJIiYrhQkIpuF2i9dsfZ2wpRmbrLzpckXiV0ARvQQFStgsLodeXCvkFREZfNkBhvyeSMA9ZLz1gz84xhs2Nmhc+ZkOtWdu6nnXcCAsp6efZXNbDMsD7b1UwIoBpgk4Z06PECgPS7fcY8pPBp8tTwMF/+SDMF7Gq5USrQR6Hs89LB3+5IlldbuDwhviZ9J3F/tM02zZavR0T/o9FtalwOo+TSxLatAa2s2odsSYJy8bzXM5RJfaG1mZDgWvqLr/qtktOyqgBIdvuah5pPaCMtyHO9qSLl5MFoEDXP1OFIgh3Qh5FRcO6Ln/8wQ0lLvF52jfHjAwjqAqGQnc44kTSvILOBSJRD6U4ZWtREYP6qrkr6uqmm92WWhsDVdYg9lijoQzuNXOY1kDjeKyyS2uJkwEOZ7p84VwiiPcTotACsBBGGlImWmXXooCuU1S8jdWcUZwNS83C0PcEQN1smrZBlpaU594oVhRFq2vfque9icdd+0ayPVondBkvoa5/SYZk6+YmU08xr4fGeDg5sZz8rU7mbMqa5pPDNxqVcKNP3ZhmBNJtAKOFqMwVHkBz1EYv6b4gZ63sOaPsam0plzJn+yfTaRMu6VEyWZZkogqDLSi/Ns11KwBcQXvYnYOX+BnHx1qFIZwShMPzhg5n7lodVsXajOOa5QjLdk6mie+pYhfvuaO+LQt3oiI4AmDfffiea0/eMOLcne3RTjikZ91DJSxxhzp37b469zz7JjJ8NGumKt9aI7twqY5Wg6pgEM4LzHnrorBiIt0xEfvvNd9P2nY8/kO+8V+8VGo5JsLRTf6jn/4U76ld5yBEzLKRiTtQoXhVsUlMeSGznwBgw6SrwDJ/4rdRtW5czaUBRI18ns63PtSnW41Q1iKmydumCTGjXIC0R2BNAZFQfdR+19jj/FAl73WvFpzbZdoLGXrlWNKwANABwLiiHgZiTNwxES6OVIsnL2QkYXXa7z0ZVG06mVSDpVi0BEBAwh85nexj7DWbq3TOa8dTOd/uBNXxnW70/L5KSoBOm5OnlkhKZgUYUVNaYkQTuTSdLh8UH0Cw4tSpgsDNIxQr31NxCnHCBxnStA6ZCuf3ZW2++P5YY/ThAMekvOCPFF+Yo1YtMEVtmuWEy+WiordffH9vPXjEFiyn4Thp1P0FBQEPztiOej5aBQNkhVd+HRp5T/hqLnVbYZ3oh7ythMip7ay+oWTV/PCMgNT1ZskofTTuVUNlH67DfBUDJWNfK1GUOIADTr5UmHgEofxgVl1aqnOopdOn5hN6nIItwy/Dw9bf2gdsm5ldd1ldrUsrXqy1Uqr+6GREeGphlnppewSNtDPwot1JKEFlgAJD1G9dRBmxvjEUwc+Ny3aySZGKvk0GSd7UfLqUIfSif8/bFrZmFgzn5+WwXE022gyWw7uO0yqrKM+5ppWD2osbupwg/vSxlVTNs1Hql4SVBMh7MQ5AhatT27e2/dZvKU/MxT8B5eyktRzG+mBftoxabVG32MZkI7L3RogBtn9fWzh31oEGrDKo7Yyfjn0qEfoDrmQWwkRPlGZgcOwTH5Nc3vvU95pMigWs3YLbqOxml+Gu+etfdGeZQ5Jjv4/WbY/3tr4+73/n1sXWP8VJ2N8gaakzn7hef21ieKY0Rhx/Wtc/S/fNvNZFHayPPVS41DlHa3XSoCLTMjef773ZhvK+YpIktE3z1nPW0tmuzmutaHsorzVRt8e9uV35wRAPW6QiiSiNuBXS9KHf6ffP1e4BHY2yWoUamVB+pQ63gh6M0pvSt8n3lmmUpGK4Z2iM95QuPkimxz9PcTell/zXtpaCYoQQ/BVlr+gB7arD1JBie6smgCTzxXj+hIV2yj502D1PEWOR4Ikgax82RXtWxs1EkhOfohf7TCnMFd9nC15m/d0lhuDOWq9KcrGouMEtUUdkSxJxaVHoagGmFMMcL6+PNX/sdpvY/Yzr9B0xm4E3u7v1nMwDmMlH3JlPdN4hE52zZtu4LvpkSpjky6b0OwZ59zAo7M5hXJEpJrK08SiBagNJPzc4FcS79tTIl9Xc4xk1ZeRbClobLeY4GQdGt+pbz3ObEFcHmPWrSBqDXG7RdWoAm4SewhdmOzEzmtJ+p4UEYCQgjZPrUXlRYoef2K2bYEKTdYYb7S94XqBY03RZ/sdV66tcyhPuiPzyas+j+3MCRU044WT7HwuErLt1DCcQcQwOEXCvjK/BsrBr6hNRAbcpavrh54Hb17NJl2yfBrlNX/lXwyx2kTw6BFdBq+4tKOnpejRdi0rhEOADAFIXUzpvaOX/EVsFnvLxwlRcpnufl26R6kCBnseiP1OY/9ABAZjtgGJRIl/KOSY7OMDV7pBBW2O31zneYxTmlAbI+GiI4ufScOm2yCe1DXqYdCQIg7s5w/PgLXAP2mmFnh3Yz7Km0a+byRJk32hZNx6Wr2ywHCII41JNB9WjengAdPHWi1uFCS36EiUpCP5mKkPm4ZTknMC4Bh/VdPVJXq7jpgs+3NsxmptrEK4fPxKwJFN0T2mUQ0XMinRluJO0MmyPAwRLq6udkem1CgguVAWUVGG1fjdJIq3qTPfXoNvH87pMH4/U3mEir2eQ/++Gr43o7OcvpdJLdlxbBChrTkjMFTg0YwJffXfMA2tpw3vuM/KWZSFdy/PaEQUalXFC5HJlOLkMoXl5ZmbkzO7WMH3fMEJ0m48a9txA8fDzmt2kUlQ7LMp2SNIDg1X8TWBI+dc7HdTTcIqoeTwJTfZMt31iPy26ph4B6X7PMXjJHuov4lxKUeAU+0mET4IxVK7ksLEYALtW8fM6AfNBYbW7A9LmYKw7b0qbU/l/9CLpEdd4rHTiKkUWrfr7LapB2GX0+VkWGQEAzL9Iy2SaBPX18RtNp+/zdwPS35Sr83da8JrddHwEgjaElNpQioDF+3RxBJUs7yVftzNbtarPY9bjxp771qlpYmvGejmVcrjOGXt2JwlMGXwLYCc/+LQg1u9SQv22b/bRsrZFWU1dMb0CsFFAVENrJM9K1+li0TB4xaDcPxEPa/3TcyJAOVzQtE8o5jT+gUMsc9qQ5dl7gMukTXl9bzmiBVjBLIJdOokunxpekx1+k7HXSGyf4lm7xu+p2aYxWMEUWYWfpKOZZiedONjZao066Iz/4LKNylghQdtgB7IyUg5qyTFcBJUCfPmWCO0qs6w2o/6+tM4vVLLvu+rnzVPPQ3eVuu91txzYe0niInbbjENsIAlIAAwoSICQQEkE88IB4QULqV8Qj4gmBkHgDKRJCkXhA8GCIkhjHcdvxFHfjavdU1VXVNdy688Dv9197fd9tK6f69vd95+yz99prXmtPEmKOEJFU/mET3E9x0czhey1Msrh/rRnfo/nUWghNnfXSbRYjnxUAv/sXIg713b+73Vk/hnYBogikeh00RqNIk+x0Sx07EOcheD1kw6lT3BqDLke8OgWklpIZQmNrUfkIrH0j5+gQ7UGsHTnTN2/SQbfGU2vRD92xIZDC5XcFrHzNuWBbl/U2Pn0u3gp35Q02n6kgLMdSgVKNeYk3HO4L4u2YY6swphX43ONfYc2UM1n6gH2bZco1Zv/uGynBIJkupAQZ3YIpOy4Tqf1CYP74oojh65FXHMQMIZUsBzi5ApeSCgxxBXTu1RRBBOzqLB0231wymS0i3fQcuGyjVr4NCbXtgZg8A7hEuQha/UabFJZL8wFB7kfjiP25JhfGaHQ1HPf93gxoLvxAreQ7+mWjzUzjVwvY5zNw+L21c2mmUgittQZvAM2oK/VaAVEw49ZuzRd/GvxG48L8510BSUpMYXawYAV43/j2d+CCmgqWcpSvNugHVRqRi/gEQqlfgeeBqSM2iF9gvugpVkkaSNNMrhipK/OfsTS0aJIL6vhazTiPkNUwpCQzNaRV9HIxm+m74N0mgSkaUcRHOqJZipP9LaJkwkgncB6orl0dhwnQFJwwRmnnzjNYbg4wTGZ/htkIgu2nfkCIhGa0cU0rvGO9tBjpViaTYqGK+EIAbtRs592vhlCJf+U3Rmt4sKFz7GzP9dbmLNKpMmGmPUSSV2uh7nj1V94o5mgt5G//UgcA9fMwX9//OYaSzZsZu4zvG2zYftcVAVBCB4zePwtPtxV60LbPGq6qr0w2mMzaoKUx0iX5s20cqbNjNoHfXziHf3qBQIJJFrgzF599P+Pz79XcwtEM6Xfdgwxp5j71w6HLWCgPQtpmf0ndqJ4SJ5xOOJZXolUHXuyXz6Rdw9199b73/OvTyRoXjbvxWzYo9ZzKIuneopN+pwI7vJ6duhyTRUs8eiepGZeJHaotRX6QK2cUws0Xgp9oUB6UCkc6F0wNyILeQ/qsT9OSMWkRC6KTXxqX9aYt6nGPTRfavGuQgvgtceq8boTIdt2UDGjCWzPlXjROLdP0t08lo6vXTfJCcoTHvpWf2EQR3J6ZzpMEZh09R7lzzz8Drp5RLqgSJtovZrTGV7MTLfiZzWhWYFU40SOWk5GLgLbrlVkrWhL8vBpNMh8IDiiPauCdimBdzCb8MpEKQxIuew6LmegoDt5nlEsGJdeVt53E4hWGR/CXTL+YewSvztI/dRSIPzMS+pyLbGqwvP8uk5JZnTgYNdsiQ5Oqx+Ck0jH+jksWdV5/SWlpqZylD+xwTtSOroIwW09cuubMjJJQiU5oVKqFAaS0SZmNPg5C9bzLXoOGLJvnL4XJrFBC+Gcn/axGSsuI/GZyP33eJr9nQmsuVRqeL5fF3YBekksdkC0zftCua/qzZC1PV0D+GsOTqxKBresoY0I3x46JXBhyLXk1YFODKBVBFrXBMLO+D4kNTMMmRhipRxjdfLx9LH8LWy32qbpaY9lvv4fItGrZ1ortqti2ZZqQNd2ufttmNA7v+zfT1AN3gS3M7zNtie5PpdX0udVSvtPrzTXjrh688cHnMkUNpBd8wOX72YcIJrCf1bY51nKhwtjA4sHqbo+8Rtvug+1gQXAIrnuPRNuc+6CDF+Qgispkwcfod+GjBDUTXaSOptlKpVsioIywIAU80KGVKSyo1CuFSalQqZJpktMjHZxtonZIyYE8PwUsSLF8VTRjUolwYHSeuuu5ZVNMlY/aaeBbrceMqznJHy4alTHKfLp2OP3df/Sb0y9/9YvTr/75X2FKFlG7ZyQ7SgOzOrJyBJYPMDNbl65mY3M1YxxbLj+sX79DGNsN8d5ZhhG2FqoWoGakVMQlY/qnVtPU+elsdxnHz2bWZrZ+vwR9CAftlAAPayFj0tMwJ1j23dRD3T1NrY94y4SSwcSpwwiciQdqfqfjXX0fJhoyOYKmdcsakrg8hQtFx3dacBSQ4EHhZ8Rml6G/JSY72x+ZsPFh35PBECj4x2c1pY96adByWjs1ccgLg5vR8EQx76+O9Ncsao6ko59D8MG9JZGFCBtUc9XZIBWeZ9UenfVqiarRhXkE5f1GtiYuIwqgtTvsZ5gwElSAd/t2zPfDJCBRPaimzsgInf9zX/ni9BpbF//gjfvTt35yM3sgbjLU5ebipnJNcHue3vOf+Dimm84jNGoG78c1GH5OiABympBG+TXMdlZISjjET6/ltt/NUH42wwYh47LO6oMmsYh+loh0LULf9Sj4XpW7HRqW/vY7fgqDApulE07KBX/RYPTD+no3C+/HDWB5xuKFK6TGNoOP4BfG0foJm4FItVlauGEJ4/NgBbrtPSAwlCmHxrStHjDIPo7gVIvVOLQ+ldt6Dn6sPllv1x0m5y88RVmDQ25UNNVaqIGSSVy3m7W7vOR2bAFAVmIlnYuE1PgGMs1srRV0aN2uw3OXHVHp5ZLW3cwZpjdNpINizUOig5zBhMKkhiktQ1rCKNo6uHf9yvXpG//75en5P/O16amPfWHaIYe5z1ETG+zSmqBIYgH7rdfeYLcDzuzzxHk7zNWEtc3UR5sd3PQz74Vo1sUVBnRbEzSyVyM28J65fr5u50Raj8zSBOgyLXz9ur8jmDLBaLfnSVaZmoqV3SLCfLKuMM61eAu5z2zvEPN8CE4uP3WDnCzMrX+s0OvPxeesPvqe7ep6KaQyVy0bQDBZV7TLXFPziDmjBbqtjn7LP17S0/LCnaE/aCiurPNsP4vO5V8719Xn0YjpNA23ZIWD9degUTOnTrPPnYdY28vRDoTJKUhGVTCGdajtdOj969klAtlIbaKFENoKNRzvt1Ywn1mzNXiC6VdqlcJ0zHo8a47OLTMi8/qrbyL+m9P9e/vso/2B6aMvfB6/heS4k4ypX/NsXU78FOnOFTzHrmEm0LOLqoGV/YTPnBTgOzWEVUit5CtMCh5yCM7oRyO2GUu8tCBaJvgbl2Ur8SuxMakQ2+eN1/Ydu7y/C0fF3BEU/CzxmbrBsFGss2VMiXkZgMmsaheZM/tFQguDBo27eNYwrnJq6xabuSe8cAxYEw5QPcrUcMtQYRzq8LmzpbREj90aGsWSNkFKrF/89tL64iCMLwG4Up/mejB61V8MnjrkgSiC+J4VNZa/BrKVAhFmBp0vuT/MadAQPwD/0fuAVycoaSopqZQK3NCwJSmF9JgJACtp8NPfHTVVR+JfUEZiFYClqQTae5nPqIY2YUt9//ebL09PcWby97/1P6efvvzt6S4zeZ589tlpYZOkOEQQTrM6mbjLWXabBB0m2TM0pksjZwxB8HsHTRJCeBtRwqLwq3Xm5eve2T5WfXOYg6+BkxCWNprY9snLey2cUQj8LuYsnMiEvqMFSNkwFlqZSbh8CZ68725spbf1fdEwg2Gl5wblFpkf+fguk3gRYtM/zih3Jg/YTj4xeVX+eqZ1w9fRrQnuYzIAq85E56HKyLZrD6JoncAh3hS82l+xYoumu3X6Trt/JcAVS5DQVovVZRBjQlLkyail7stMhHFoJOYaRs8YIUc4aJdlILWKmwq5A0GbhlbL0luVnUjPH1zx9mAWzZYECIAZ3Zn7lLaf7fBgjGT7GQRdYKzZSzZzzoYnC7Bz4fTglbvTOpMjYKFI5Ibw888UhxG0Q1gPHz/KYZdblHuYXWPLbNQeMxVkqOXOam0REkLpXgxm6j4IR3/3WSM4jEM/uq4SquE367SN99LvgZOBllkb8zLFgLVQyhSX/ZcZ269Uw4CXMY6v9u53HTN2I6kFduB9xNZ/a4750g9XH9qnOnAIOoSpSvDsTykDWbmslhvNZ08hllAkuzKsgxNqZ6qaRjP6BXz2t2g/F7SzzFgQqlwYhmRmlktdmX9QHS2prxxcbdnhjGZP2KyRlewc5b5+nhcCLszcmz/UB3PpYYjk42i6s9HXGROj9tXRVp/yjkNPXsXIczhERqQzSFX31uTO7PRqZEeiZvcE04IJenibUwBYI/3klfPT/ft3pwdsWXKJYamPXl6brhK4vPNwZ7q5z/EV5zemd3l+fMh8OjTB0gY7TTy+m6DkmG08yqWgH7Srn+v+2NGKMUGV1Pd3C01rokAYQRo4CD5LczZDK5i98YBaTCGS7TMsR53ZKY33o/X8zqcTJ1wSkUECCB5taCSrxTJ5zXsZ+aGsvLkPzKvsYua5MZmZw/qabY7lOEJzuh5lDY3WIlwb5lOfTMe/6r1MVbnVWuylNeQfMGZwQOWEBTvlTOsTdulwsMG/UxK7CZjlA+ij8GfzfiGLdAEPMFeOqExxBVY84r0N/HYZPhrRqzjWrYmddTPXYPMZOCCQ0N+RFSephuPJ3ykhSkF2M5CIMJrM1kSz3tYk2eXf9mkzzMZniKSfBpYExbJec63j+7oCRfBIMYC/7/3PcdD2jzEVzMh5fIBkveX+KdN5YHvxw89NX3rhE9PvffP3CFyWp2sQdxciZotftjJeu8SuWJtMpjhm8pj7WBuE0jcZUL+oESV8lbryc25aha3hs0z154zAAV9vaN512D9L5D2CPKN6JS39h1D6aSbtnXal3+qxafpIOBV5ZsY+dckcI0hJVfxpCpNKQ+PtkEXYgwkXOO0ABwb8ALdaLAwtzu2HRPBTpIN7FYgbs+oqGVWrMLxp/RTNoIDCRn0yVpgrQsClwuAj2YQxHBzGpHzzVAY6ElnXHpXyTvBA+1Fcaumq2EqN1uazIuIzDIYp6YN5aIF3skLNhg9ZtecWv8enZu1rf+3YfTRVabzheIPw+FKD+eQ1AQnT5dPIrTRkb0nRSxdkOuvUFzHCcqxZc+uGmmsEHgcP70X6TlhR5x7Xz26tTx+4sDH97jd+f3pMh7dxrh9AmIx7G+Tw/g6L/tcunOOskwvTtvtrk9N0mr/MUtcgHL1KKkhJR+Kb6SRPM2ILlPfOCpH31YjdT81YLc4y7WGmQKHEL6VumTEBiaMnMozrfOiLO3YtHuOToRhy/K74Cy5Vl3KJSxYMOhz+JLP6Lsd7aI2oQ6Z2bYkbhWIEqazgqR1dYdK4SvbLESn6O8xstPmgk0yYUTGuI8360OCJtjV/XBkgVE6gUfe/XZT6xEUh06Dxa3elcRJf3Ly5fZPQmguVtH/mCXMEBIyVAW4bUa3zqUzYoWMi00VXgZn4ZvaNWlEiZuFSEDXqkJEjw+VbNkPrCxoJG3Q0swuU71YkWv6KHZ0TFDCBk1dBCC4E62EuoxWXxwHnq5jbFaT6F597P4HJQzb/vJizle/iI+GFTAf3H0xP3GChvLtU4EPu3rnHzrOcIXLpynSO0SGT5ej0GTzRIFw1/FSRrogUTl2KZkDLBfZx9fcgeZhy11nHjNHGCX0+8cwXXjk05QKuPdPPfclP3F7Y3XIxhVmpBz7DB5rBwdS2qwb0OLc1gi8ngnCiG0gxBaZ5h0nBLVRLf2TCWiBWw4w11DhPJTVTBHyVBTSwDu/nD2Z3bbjj2eYg3WBgPuBQqwQNgOKuDRhnAoiW7vmG1uXV9TZT+qkgcvJWRV4WakS35PtSBxzea8Q6C2frypWo5T0mY66qpulANVTRXh9n5nsZrqMshfLnPEURLVL87XPrbmCVrJauWv9QiGmpE8GHEEfxMdLVnAq7Y6Vrm8xlXLkw/YgI8RaTMnZR/yper7sw33O/8LFEjIrHkWu1PW+Fmd8LziixC6ak+gWhU1vQB//eC9ecAb0v7MIwh7tgcjdbc6or4Gh5mLM+HcCJps7O0S9cZD8gxd+DhJYZdTh1+zm2APGVReZaWn8LR8N0/Qm2Crl0MYrgBKVx7I4ZaEA3iEpMBF85EuWImAzdw5Ltw1aAUlPIkn6zjaHZLK+m1BKkPf1Etpd230RpqeIRnoyo2BTvuZOFZeUZ/xpe6VuKtixjpcUgylBaWtClC1/4qy/FNHA1srvT/lZjLousEAWgY+tdxcVZO/fvBcnnOVbCQbc+JsG9UrysJzvM2xE7NTN99cz67YBa0OMxcpYHfl6rdj0i220iK/E6485+1v9dZNHV/p23atUclZ+j2YeY4j964/Z0D5O7Q8oii+7RTh4/YVB1/8Gj6eqNp6bHjx+4gTiddgYZSXCcZvvlIdiaIF31CnApwO+sXuTPLliuhUb4gjfNZTRQMUyIMJK7+oDxmVDnljC5YjDiMRyarRWixhPOeWHL3OnaR5+aLn7gqWn7XcbO2cPwiL7uJ08r5X03CEEHaLEYd2cMfVkT7JJX8JXMh+UVDF6ofYn6HTWX1qiYp6rS3Mto1s874EqtdyBuHJCwLSeSYAHd+viIycoZnYGzeBTrpDLJEHDWMlsr9YsPtTxa1uC3N+3KuX5anzAzhaUP95j4gpkYuzDEZA7plltdVN97/ynt+iVOAUtTqOqldVTqHn4Ys6RXr15jAkIxYGm+0g7RVHQqJjoqx2poPCZAKaQcQLu5uup/SW0FDApHZrLIFIqTjIdkK/EBRYzTQU+WNzGL/JFOOj/dZCvjidMBDjHPJ7oQHk/B0wPaFgmuGHx475Qj0G5Md994g9yYY9b4xyzkOscw2A5H7Xp2S4QQRorUi1h9KHXWIKKMmHSUj+hDHH7LekNY0CSL9MG+KFgydU6Osgzv6Zagt6aFKyyvYM3DX/r6X5z+9j/+rYnzs6bbu5zbR7L+3/6Tfz6tPULjEwSYOvGyjYpeWRpAoOWyW/1YmcP1046AoWdT9hhudzTIpQfSwCsCZB2jH+kn1iA+ZxiKYTdpg5B4mJHj1SdYjMu4NboOTliW28JE1odAOA808y4z6uYCDfYAACAASURBVFV+se30n/XqzugseKkts7baVZLgVcyGc8pZBjgREwRXmsIXmin6vkTRgRXQK08+Nd35ySvTCeOQ69eugWxqAMkykwAhC/Ez3SbNetx2I2qaNvwdpofYfbiMsLQgOHlVay4RNeFqAFMq4i9IhHkPPIcPrjTF5eGU992Gl1GAixcZPWDig4dfnHBa6CnaUSaSmVYhusde3N3BjAkl75sg3uFclsULF7NQ3/r3cbxcwuU8y9nF+/q7MllfrRkFzKL9W34M03jTZ/KnTImWOcVxf4xvuPzEpemv/cO/P/3qr3+NHOc0/ef/9v3pv/zH32bR0rXpH/yz35o+/rWvT9//7f8UrZIg5mz94Edtuk1u9AITOlY5mdSDLgMb7WSnNhh/j/fWnQbXAhFw5nXFHTMg43lwBPNlx1+wc+HaDfbzwQVjqp/bS+uSyUp1kphMD9Pxvlo6y0JouxZTzdvQcmdCs7hQGGgiLgyWRx7JfdpCXLgRDErbSkwHewDjGuI43apZ/mxkAS1jWUm7xpYiy+y15/Yb25wCsPWBZ9LIElvkeoxFAhyk0uGoEx1u0zz8yw4BSJTbclj3oWX5XRHhkFaLyIQESjm4GkpGE+DSCfgp2xzvAsUas4cjU9Sz9eST0ydf/KU4/3dvvZko+v6br0dY9h7vESWzBgZtp3mKCY7Gk4tpHyY7hEFX2EBpkSAAHVMTQB3C0o4SjWrSWtvQfS5xVJLvr4r+6Af41k9bZA2wPky2d+PrqjlMxsL3uf/3/uW/mC7+0ment8lz/ut/89+nN/7XH07LrCfeOCa3eXd1+q//6sL0sc98Zlp9+v9Mhxz/sbhYlkjbonrVEpjj3UEY9wgYY12g+iF5Pr/LHvKWUe0+yyoUWA8eP0WozV9mY3wu8W+wwcHdEToFev3CBdytKywNvpYFbniuCKgaz+nJRQtrNiygKp4XVqSrvqZMXAyFsDgzRwUFMLJcbfYV81FMGKFAQK/+yt98KRIyiKP503QabGT4j/tqwcyO4BNoUmFdR9Oli2zG/ghfjLzVwvImGofcHNwCD6W8wGaBOF8ERUYVBSKqpv0DhqoPGHxSO9fXPXGV3Q7SGP/Xh+HD+HYJAVqhk3v3GP+krS/82len+zDXm2/f4uzkW9PuXaYuQaAdhva2mHXji4/YjcK6YsL4F8lU+3tT805g4fSKpHIc3oRIDmGKXrW2eCroS/Op/bwXra3Zj8ZA+yNwmrUQFg39xAufnD79G78+vfrHP4a5STDjb/3g1QfThz7/FdZjM3PoP/y7aX37VSZUPOD5Y47SZSXk3bdgiKv4Zc9Pb7zxHVYq4i5Ak3YXYusVTolvlgMcyPxSJmkecKXwS1o3KAi9ZRpxyj+jdPO/2IzAyCHaaMAnp02GTD20aInjdt0v8dRRlVmdZzMEUFCGpuLZkoF8RwrTPs0Z+XNF2LkSHauo6i7/LxpI56VLL379pfiLIp9ORVVGTdeL8e8smZoNONo/4B7f3ZpCL2yfHNbOo71Mw1pGeqwjg+k2F7FRc9h0XUEMV5ZshvnDmvm0rTCHvopwpaBGEX/eTuKnHnCylFNnDxi++tCnPjXdZpuRHXaciFbXjNMFtzl289ADNOkWCWxnA+2xziO725sbTMcFrQTG3yf4YjrrNrqCS5F9Y4SdfwcO+CtZ42pCxH+kjlW4Ib4hdTq8dnRuc/rM3/lb07XPfm76/u9/b3r0/36WFNMSFmLhwc703W//dPr4Z7+IS7sxvfbHf8AzljxYPTNd9vbfmX72+s3puQ9/Eg3PoUKcfKVidipdeMpoFp/Es210XbICj98zn9SO0Qfp5SBFNDfa2WWxp/RvkYVVBiCbV65N5598hvUuNxjmII1lConJES4dj0b3PWmgn1vEzL3gDThyXkzScVIHXNmmeIX5xKtMGPJTeOaOWVK8Uiw7gcmcl7/411+S+EeZQSGvWplv+l9JoFpRv6Ey7sWs5rpWWF2n1G9wEKNDP0ukQ3aY4bKEv+I8RYfjbNCo26ynKrqdZiMpL7WJjNa7gQmUwHlVNE+7ARqEqOaBKv9impand9CA569eIahiEoBmVybm3QOY0G7QZMZGk9pB8ndgXBrAxJSbYDsiK0sBGNJ0Mq2nxXtM2S6fbrGx78by4oW+ruFktyYMkF4KnHu80ZiDlkkCX704Pf+lF6eHD/anl3/nG9PRj/9k2nSrNlyNUwi3ytYre3fvT9/77ivTL7zw4nTr9ivsNX4X3LsLLu0BPCI1bePLPvPcL07vcmb1EjRa9Zxo6Rwtk2iTct4j+KFfbu+huVV8c0ICZQ6kq0NxZAY20HaXn352Wr/8RM5cWT7HPEWWF3gO67GBCCb6xPU2BkgwrX2W64L/+pEuJ18ajVvM56eXn737VwQSusfS8D3WFdji86otwZeTa3x16cqX/kbSN5rESpuUVGkCvK//0FKWs48hqlvFuTtslg7QSbP+Wxc3s63ZCs93HuL4k45ZMDcGEyazDtwdBJWE6cPI/DBAM8yQqiAY6dU16E4bdS+ZqI0UFVMs0NaBExnOrWGO35g2gUsd7BDYHstUnZzhrmImVfVbzJs5VHXItmxBmFJqeYkqNsRlEOoyiaMcdqnZOUc07pZzlpMurQljPSwPlp3VY1JAzbP19NPT+eefm3ZJFd38xjen86z9XvEEKrUKGk2ePWbyxsIJe/64Oea0OX3kky9Or/zwm8BPYEYrK6TEPvz5L0+XXC/+iLzc9m2CrMf0HROdBeuOROmDlQDYjxPdJ4cw1smLkvBeZeeHTbYh2bj+1LR19ca0SlCzTPL+GOE6QYkw4A7TFY1ywJBpPBjauu2nmk01Idz2WbrFVspVamTaXMvE6FIU4iKJ+Py2GO+oFfhhOkk/teupgQvprNsAbZ/48m++VAf18EZoUfkdX2h7r6Ys80QD+kOmQmSMlC7g3Cng3BU6ifla9LgHfLO97Z3pPENxqukFgosTNI5SIrECAP9keKNz4a95h47C6kDPh4w0fWpME6HcDpI8xPsCwccxjOjSgA1HL/Abjwg4Ht7jAEe4bJttONZdbeWsnaF5DWC23bkMDMWBDkOqtcvfCwZpQeS4Ze8WIzfCp0mMVgxeK7NQNFHKZV20A3g698zTHGr5BKvf7k0PX/0Z5pp1P+xyu6SfKq70h0H1MQHE+iY5O8C7f+ud6RqHfa+hRfcQkhd+7S9P5z/4aeo8P71FoPXWy99iUuo7xJX64dKnvKykjwwi1Hyk2jSzl57+wLR67Qn+npwWTGNx1PARvvsJf8cwn7vbGq8uEbhEs+t6ubAp5FeDSiCeD5q7W67C6T8v/1/MJIfRo2jFUhhlKYSvNGWN04/g1HeH4LavaLked2ZSBT4DGsYoV9OZSZwyRYIVxnTRbN6w00qjU4gyC8Zhe2DRNOwTqNjoNsTdvHGDCQZvsn82W8PBJO+w7fHa5cssOSW942gIBD1hXcnJYTn/C5goJ3DmTGU0XrQv5tGAoQE3neil47yxtTE9wUZP25wI+s7PXpse4ZtevnE10idUeyy43yBHZ50y6x5pmVVOkHcqUyb/2i/K0WIIkVEZPospaUSJgFm01Jrwh+wW6947fVnOq5BexInJsu+kXZYYw77905vTwn20HX1aYSeLT3/5V9m3Z336zv/4HfZwdLIuUbozmQgGnO+7cHJ/evWPfne68qnPTM984jqJ+IXpp6/+eNq+yaSOUzOLD0tYMMtaJBlxyTOsWVV5AP6vfugjmF0YDRgO0XBun5zoGnwzwSpLbvXvIuB+0Y/tHKfBFYIeT1/BVKRijcrayWjHbueCBTTNUzNzyoqk31w5HcvJKFo3LhWYtOsRs7RM3V2+3bPSoLpsKKasjOMl1xa4as/xYsdGBUSz2usfZEbgL3PMs+xVCLWcseusGjdOcg+dI5hs8erV6RwMs4P/ZmJ59x12l324zQaQlwlkGAlwrDasTKdh4Jq3R6cwo9kpFglTA2dgXQVCBy8yJvzxP/vp6ZUff3f64R/+Acei7WGuHhCNs+0J2tcyarllzI17fq+yaeMWqZhtfEK8JcpQnmBmw04r7cnsGzXrs2BSYmqUbIiR5Jf5Mp6HSUVyUD408xypIlGiL53bmFYJiLZvszPavXdZ9QYs+MofefGr0yO2Udm/s43FeGo68gxl+rRAYCJxV9CWhxw8/vDNHzDic31687W3p523XmNN8X0M9liKSvvLnkClvtJ8GjHDgCaer+LvuZPaEfgPO6npZNQoKeHkrQi3Wkre9F2nSEgB8IvgKfjKVxIjPlFjq7mVL4TaNea2F3wBvLxsURnpADosgeuMHPE7U8B063i56CqOB+7ELWXEWc9wKmbF2jz3T/89G0EZedUeL0pGdvPi8oVDaskuYKY5aKxtu7SqQqUhbEACZ7Mfwzv9OYA8YgXY3r2709E2x8TS4SXWTiyR4vE42VX8GJleDJQ6bxVPUABD7u9i1vAv7xMR5/haHq8e3gdpmGN8qU3q273NnDtQeu6J6wycl0Y9YTmDWyk78rNi4ARTmEzfpK1Ht98BrtogIJtPgbCSVsmiFumOhRdBfCV8dSidGXQIQ9c8PgSIviqdLlU9934mVDAst/+A/R7B1TEa8IWv/Aa6bGs6IIB7fPNVmPQVViC6xy1kNHiAuZzPucdmkk5+MKqfLa0FMpVzrAIEjLZRaFdhOqzKqj4n+Lv+0c9OezBW5TPLbzP/G83l+4LIq2Gi1uYyNDivSRF6LjBrSVra01WT8fpqTZaMkVgamrB3vNA0V3vFrKlD7Wq9wO5+SHGvBhP2zC5/x6cESJRZTWjMS3zvUQORKaITsAzHXSRluEoJk2hc7q2SxEo6gkmlA1HrpjxoZO0CmuncRfbIYar67dfx8RgYZxju9PQBRAMJZzqWvBu2SsY3wIgXmc7wCfM5dWvjPGchs3PYPs9P77xDe++SDnFHgttsBHUVcwVk+EKXMCPWp0Yzp2bgscOp8pFE0hzraGUXYknkxO3AbfBV06QG0ujTMvUYuGTFmzNn0n/Yt6gSXFxiJOfR3Qds9k7Urqmn3Ae/8MXpYPXKdHzrbZLqN6fH7NOzysGXMsX+8oXpiWc+ON198yf4tG50BOpoY4cjgytgLGFwGphE95939Kcz64ax6cccpOSRIftormPuWy4+t0O2ch9X6rUOPjPpRFwaVEHbBCHAmk2y6IP3Uke9CuKqbPA/mNSAA5EITby8X2ZWOun/V9LbZzJprZHXzZEx4yzwwD7Vn2ydNrmXrYtrK1p8PyprRpsvnq5xQZ1KGSTL/5C2qOKYUnwLfkdjguWo9PQeP4Wv6rgjg4XzazHXOfYVxnFjz2Mc8+NxTlwicEWY/zCEON9oSjTEebL8mji13imRxvLKeYay0Cbk7FwMtYmP6cjMAlS7f+sWowHkC43Yk19Dy2veqeccH/d33hayOOIiM2YKhMfZ1uEdV2nnEkz7q4Vwt4gDcoybMILtOtLjLMAjkLwv0uF6E+Vi+Rybia5cfnq6d/seh4rLhK/mKDhTFoeMaV97/ycyi8VRFo1khtjQ/KEIOMgEEYk+PotY+pTgRm3oDHXaPJCpwHntKVN9cii0NJbCVEx8tq4sSOO9BCXRsmUqa8QD+vF+yED7zZzSs2CQ1YsJM7N/aNnkX6MB59P9xEM0IMWddqdjoRB6WVcLnEyZfcAdfA7jcJ2iQq3QQfQVxZHXDVKa83t9ifcNcFpb+n6kTDXLle0quAw4Fhh3VsupnRYXWVPCMaUnLIxfzw4ROrXOuFHDAKiRMsxRs3lVXLSNE34CI7kWJpuBw+Dgkc7hBxJ1Pmb0BFlIh9fVDvzexQ14zL4vRqoOVTkr5DpM/M5PX+NFxqBNSQFrS7u6xMR1IycjE/Y+jADqqVfz+4ht2tbP17rpU3KW6SN1y0SH285+oQ5ciI9+7i9MN1+/NR3fvjndf+NPSBnhYljj+hVyns8T3ME0bEwqc0oIx2kzv0kcUc4ZTnGJRnRccyL1wUiN0bdLBH8HaOQbzz6P+8EQKzg5a1rnjKeQGXTKbGX5FFL7f0ykXHla6D6CQenrPXEps6b/Qxva1zAQnwr44cBXGNT6fQ5f7DGJpM7FGQIPno/dYoZyxSPmWgq31lna1SFLmSAOH4wHAhxNkNFKAsp3i9Y8o77dvsxErx3yOoEQOXiQYMdOJOI1oAFAL+9JJONVD9NO5EqHDw80/c7u5qlMuwbi6FHWzlJmRcZyRoN+jjs8uEcincpBi6QtVq8TLS8xyfXWHVIbRIR0QZ8kU+NJGl+4wuahjJWaxH7l3bdi6nV/ApMcwBVE+MfP1kCz6WwQobVTv5NxWWEfRFMbyvysmJ72wcHHPvel6Y3Xb08LRNt3Xvkes1+0IOu4E1entXMEK44177w1HT5COxONun2Ks7UBOe1LD/3OjDMNTQOA1G7wZjByzMlX1I+/usJabWfL1xS0eb9mpjN9LaFyfN316ZqpGdPyXU2VZQpRV5XS8a3GRdVVSKt5hD6rqFglMtdsNXdVvMov4igrAtWKMfe6DbQvgbmM/GOVxD0XUTMd588N15Wa8gMBfhRqJ9cGl5k9bHk53sRsGhE5EExpyAox+qOGiF+i1AxJkO6aV8c9nRLkgTALJqbpVK2Z5qlpBIRBxGr+4+9QkakGM1yu9NCJEXnhuuXzzLBG0TARdvc+55vgH1LztHPvHslftCujLQdMU9u7yz49R2x0jjYMrNanpht9DGr0IwRSJochKpKsbVZy7omPFBaEy6DimHocQ+8FTb6+cQ1zTLsHbCx/70cvk8NkhEctjzleO3cjEy4Od5hmtsu2wGMRWnxkhRyiBp8GGYM4jV/BSx6V9ld0j8D9E+97RmpmlaMBoChJf0LWAevw571fvpxPAHTQTZMe7U/fXA89m6AskyjM3M+74HQF3rD/1uOMbS+fxS2SRomUC/YwulpSbagroMtmm3mrYBPH3U9lgDmVIMBoNwwpowi0YXgBpgnOSUZUrDZIRfRW+dEfVHs4u6R3yD/i8GjYKY1mfDId16TClGpIAD+EUWUmh9VU2ydoBiXITZOUJkdkDnDck+aB6YMMNIGzYGT5JRJjNSGJVkjXHDir+eoW7ThTh3HaRw+m65j+u+zX4nZ4K5hAz+4rakU8K2jRDZD5qL8FrsfZ7b+9bAIWU0yZSJHJpSBSfLvQP0xMcv3JD3wos3zu/4zhuIVt+obwbFydNvAXDxGKBQ4HOt69g5YmgyDxhkk14IgWFrAwZJFM0FozZb0O97OMFGa9/+7D6cnLTyH4wqh/KUXqCsNgumeE5ne0bQRM41/1KgQKkjORAIaNCyoY7fVC2VifSyXk8KGGU/x7yoR1VWJa/FV9at9m1pSjXgX3lOCtFJOWtvzQpM4VbAUhCgzAKlcmgUCuveev/UIL0mYI4neB0iRnk3YuP2SeLAew8xIXhFlO3/CEe87yCGAwnEhwPDTRmcyNSd1g/UnMPJUJ4DELoXKwkFE6PqXTyNYMWJDKWPuAqHZKWppImZSQuTDqX2Sa2uZlkucEQppiUySHHrWmfZDYoTZNjeixTFJp9iwO43n3MxsWyW1e4sQ/mEbYk5bg/7UrBVqKPh9uMxnjARvbH5oOEF+r07mLTzP5AgbYJ63Dlh3oyBI6Xhc+g8L4q2o8mupTRwOjzJWko8SiRTq/JFGDhOqXkxRmGkrTF1CBE3gyXq2C4ZIe3k8HBxKkW0yr8uw+5eKT8vqRaSHCVj3NPNLxPAl136Me70s7v2d3L4UleC73zsS9VIqY0U72HeJd/6zfNeh+Rw3xMjd4PZMD3IoiKlkGBNG1DhnmkSCaTco5JplzQGzQUgAmWaL14PgsFNKcIb1R/QCVzcKt2Pco1xKVjuhPBodqJspwyZBLBAKZgIApUBjU1tZh1HuAhos0mcjN9CeT7LzPXMj1i09Od+7+aNqwbzpR6n4YNft2p3qIb3pIZCC19kOE6wocGvnJZliCgh088E6iZLWHroRVhlKFXGdCux3e3Z/8EHiZAbSAhmdz+/Wt94FT3nn4NhRgpEmx4Z3Mj1CAAcahTPulW+N93RRhiTazfnGGYsoyWpEUvkIROOFYmnUoKs6pL8sAqCgCBJ6cQVPa3EkQBkZaoGKGKBcEUp9eVynMARyzmdZawmE1mqF1k/wexh5aYYmAN8+5Z9432t7ncgv1OapVzFnmOdqf8vLNipMsIO7S5V/+Ky9JUCtSa4VB5H4AUErVbu2wGw3rR0rLIIorIxKWow6Bs0N2RDMuEF4aalm2N1uyLRlQiSyKVhnv2751a/b9lOk1J5nMCiPJr9Ymop0jGOmPpKsBHKlI/DldvsC+3iBkm6HGKsPNIeHWIL/bVjZlyo9yR0BC2lLtlUMd9Qf93XOniGV5TtO081ZV+JEoWgD/MXR3AU14ih+79+hNCIYmFNkCxiWPFHPIOIUj6wnO6UdrIssKe7YS5tMRjqTV6HfytzIZhLTvCQytmEv4o4GouhZnwQC2advUk13EqNLI2FEYH+ZMZuiX/lifuHeUi7r0H6MZxZ/NSAFxR12FQz+dQT/PSWe3MWi3yoynyIb9GDxiXal79C8a0bN882VIi993meWRXCEvKolJ08BY+T3K6ztatgBXoqWl8/Vaw1SHWnqyHpmo2nfWIKIE64mTs04CYAJ4LqVKyvlh+mQHp3wVk57cFdpMJnY0IkxmqgE0S6isygOoPd65zSjKmkGPYRKarycL6IdpA9QYac6vtuM/pZV/1pf1FMBg/cuY//ozqCuNLhxuJP/40TYpGvtLhEx0r3ACINExQnBMkMROC4yhhMAdJCmsPXgQvA4hkS8wJEVg7pdmDMWqr97jp77hI0ZxLjP0Gfh5sQMeLZmZh1gt5/vBuPHlhZt/h+RDVQQ0WTlF3pWhZCYn7XppBdRfwjZzwwSOKzQdnO0QsRrYtTK9ll1G702zQieVWdqv+gRYutqR4BvcxUeMhjIdEOBq8bdAWTDmC02YCNYV/zRyALEdqcg4tMxIh2P7YVo7a2qjdw9zQ8b4kJQzpeK1x3uiJIlngCsklD8SxMNEuZ/kK0SitFKeLXqzeKokX2vguxn14J5BUIad9Ll4f/3c1nTIthtmSj2NU7MUMyij2HkELFGnfRA53hwIUweusGRgnfxhhsNMI1GvBLKshK1Z6w13aXDfhyWY+XMTwWN5AgHX0gKbP9Fu5UwluHiSOPaszHCYUQIDSxNMsyg69LDNITqvD0SGwUwSLzgJhPKPYWr73xMSVAbHLojTr6Td4BCGse5oN2lpZiPZD4UagYJZNbFNj2g82tc16gO/M/YefKv5SjGp9WS6WLGRW/a7J7TGXHPJaNHMBircC/VkdPqhFnbCsWvkeVDMkDUXvhhrVEwTX4rGfJC9WAQQpHjUqg2a6U+kCyKDbMvTID9jUn1fZzpmWGbiHfdosXyf8Re/E0Q0HBor4UoARHn/wnxJFZSJlrEKFh1e3xDxIgAYYQS12CaM6AQIT0wNH9HpWS6MCN1I3B1VZUFPRHDRlykZkaXvtU/QtLVBcMa7BlxNJJnC/uXEVOf/qVn9TV+dQW5qy62VFzjoPFsDe7SvwYtQwiT2JQInrvUbTeHwnn/pr/qa9jW/ffluLAefNTSHQMEke/RvmcS9uCiv00qpm99aFfF+wkKwErZKR5XPTmlGtVYQtFX+TKBbR+M7uLdx6xAf1Kn/7H2hNo/cdFkchzDJbAq2l7Dan1SR7Ai8xU8ZT/cgSkEB5778NTveQtjVCDJAktwiBkUh0K6FqFCfZ0qClVPQGc/7u0bQ/tYaqcFKzdsJI6YEG+Fi6qLCFWyYTKcu0Hyk46pvavVemHLUUR0BKnCcCI/yOS8OhikpsrOmJAJRco6Vm6QNpN5z6XJ4t32Rj5VQ2otG8rfpBZ7V1DCRXX5LGMWUCv3JAn6XVA4iKSymmw1cJLQIXdvaZILuwzj2OYVUYaV9I9dThiCPcVkcgiwGVphLKGOqVQS8lwPIxRHwNaO6oEvtlUVl41lNNuUl8KEvv33nznQxoz0SoTIa8WijbRiFggkcWSoTqf8a3oi2y3bCIPeIbINaz5lICdDo4yGTRIRLJSJv2M9MnJVG6V9ZoeoLbUs/8JsJzcGz+Kv8qxng0Nm+UE5rFX9ZWsDcWs/alo4bMVcA36MKvliLYoqzZRLDd5HUGvAhPooS4uwNy7sqz4b8b8UZn14iOQ3K+RCQ+YxZvC0huRdVLeHtigxjr/2UQXTM+cwCdaTHP5GjVG2RJHYoD6BCzFhbGRv1paGtoUmd+igH6qGtILB8W6evRWp9WI3zOQRwDL+Ii+OYbtoFwTKn2j7MQid9rjRrJvUx1Zz6aQLgrg6plkhXHe1z8RCtBp7zUESNfssAg0dyzyvE85+f4113YCvBE1xMMP1wpCvaEyRYv1anr7RHHcLfaRaZNovULJ+AT1qbagsKgvO6MMG4YYlu+dMvdJs7tat0MF6oeY3FnOKmJhDLh5WhcO2Oa2s0204hk+m0HjkLm3Zl2vj3fSqRh1y7TjibA0H4jGbwhoyiBhLwJHnTYbkbrsancHaK/kZ2DqVM5sJx7yDBgRpWprLPIIiUy75rb0GK+bsc5UWPjX5dEpkZLSBxiXFhSqUdmTvS6IgDDGIgILJcEBXf0aiXBnIUr1pCMwA8MkrWzFCHi8ztrH6T47ilsYBBggXpVGiULjfzW0TpfrhHtEHaFmeXuMUJHcI6cF/WEh9JvdA/XSFgd3uPbGQ6GKeIWcwvczq86bPKPNiuAljms4lv251eEdeWz8V3XQmT/N7yrmWX9ZmxUseuxwamJYR3hQXxB06yEGTg23csG3rqS9eKPlqFkfTjUgmVlRbWoqnduGRUgjxIlT4KR0bDKK+Fq6xImeyKbPBhwWErBoG0zvjhjG5FwZDTDcH57lSz3qVXvDND26z2kHZe6Hyc3gAAF7tJREFUbCd0tgcKQNSxFnJxmbm1RGGlrrUnSpu9Vo2HMCGu7UnokpZoEDWSvdZfhDlknEgW5WIamOmtSu+goggKEoHPxU8y1CEjJ17pJMKToEG4kzx3TweuEW1H4s1BiqDhm2WctDW7kWs0Q2leTWVyokqzsNsHBCx7YMPA8bNgRJkxC8TV6HzaL41OvcAn7zbxivFKoL0XjeX7qh+uxleVqyoiwMFjlW18+pn3ZAzwFl+RtnY5im6FJQFS2XocdlM2nA0kM1bWg0S6I1UjaW85FcsC/mu9g/uV1XhFu9CKHKxKQ2Hpo02EYdfgAobNjHqT/phcLwW0aB4nL/2MSyWPYK28lOeK5ouJLR8YjYj9EeeUztmZmh5eBEMVwbkVKR0j0dn/BVyrvM4ej9YzRdKaDTYx6FARi8hZhnJ2q0RVI9JBmUTJqAhSsxuWnRFS7SYDxPdA+mW++HrD1Bq9q23Lh9HfgCWQPEdZtLAXL13Dj7oFH9ZUJOsJfDKk3Y2LoPkagRr3RHbtfms0iEZxhaDCJfEkUHgNBPLpmzJDz1IJkkffm8kaHyE+78+f50nVFdzPr/LD1Pgjgax2o72ss1brK1ysX1GRuBxijfXIjswcKli800FBnzpQQQbd8LEOmhopcBvA6POWkpmZb+5RtJgd++q6aX114dWqqB2TIwQoza4MrpCHAcG1NMv8xYGLTICgWWMNTfgx5Vsoc+CTFVtBmAyJ0PRJaImryfQSuBCfZmgnjaaj/LCD7o+S9bZK+mjY92yo1LPmEoIrzWgREaozrKT2TA7JECaPxGgp0W1qa7Uv8GULXmBSIykwCoERajrDC/HVEBgJGB+GSDDnsSzusqfN5enBHaNYc1rpUhgrmkb+UrP42/rzCC1Am6p9CeRaZ+GScLXdhv2gItsP/mTj+TUTwtFYadqquzVhlymGKyYMcwN70l2JTjEeI6Dymf9keKeNuTF7uULQSs0nDSFwZk/pioTZCmbfTdaCS9wsZNNPtXi5Ik7IFZ9gAEZG8GUm3SDxKH5xU8ITcrEXH4En7pgaGk6Ay2zSemtBVlmr8I16AwWg8omGlEn581kxIy5AHEjHL6lFVeseKPqNMk2AEhidW4lAJ0FFKljlvojJRFkAiKTDONEmPPPSpAm8jBf4NYF0zLIZYx3l5bxVpnWVi6hvRlkl1ncos+8m4iBKefJSBBwHDiNpnil7AqxZiRfrKXFgHiq4xzKDbI7bjJca5CHhrLU5JTDqYdqTx4BZLeF9zXS2WBbxEESFU+8raOKMR9GqCur8aoYrwbCdMkV/mpYUX13eGmy3A8JyFegr96WB5WIz4moYjEEXXzJthkLwqrpKSH1vHdzZfmgUjQmTqVR8jWCk02T+DqPqK3M5SymbePLPExrSFswU6yOuB4MLh8O0JtlVCAsIUfWbuvjND2prl8vMB67DsADiLqsoBWJm6uhMIyGabKxdyRAaLyRQ4KWMUMhI6Rh+AMwSZPLMy/tFaIltkFHJTydAxGekY0vZFUHjDIFU/bzb6ZSMS4Mw27WuDUZUjJzV7YUoOV/mApGYbi81lbnNBaJ1i7qBknkyxeWAyZoGH8kImOtDyypoQtuSqTbwhv0WRv0rYfLyNK5moOr/cA941mWKaamTdyIgXH56v8uc/X32XtdpX1tzdXtGs6vuS+jso6jdylwUs+mfoRjYEN1Z70tsdJBdYFUSSZyGP8FRWR/pLAOf4hfW6szam1JmiCVTQYIEfcmygPZB/cjdjJ7QOrS2Tz5XW2e40HtCBoDFpKVJ7UNSOQF7KA5dGfGjnY4GKxxz9rd2nft+Sgj+siSAjpzirBoBJ3WSSgcS7BBQVaBjekXVX5JlmzXQbbqgfctKiicIsLUQWJUe8ucvQ14yo2E+QMfkUyxTiRyRkQpo7NpuF1jsx0BIiEa1LrjS2T6IE340PeYYXY9lSN7Q9oDfjhvxzd8tRMgMGTcXNv4zGf+e2TfBZfWnGc2+zrQ9jC5++89KKilt/cWcTdw581qD/S2tG2EG7rOXcIbJI74tKBCzE4LcgwLsP8SyXRSHyasEcZaWB0CM9dpma213gBAWD3BKDtUuy4i8u9IjIvwuZkeQkGz72RNh7X/el0biCd4JHaUDf9bl82pTfarAFAxqzeAeOiXKj89u1Dw4NZGklUAsnfekPCS+UPLnZMwkiS1vtDjes2HL5gRKvgdpZ56p8Rrw4n4RgD8CcwtspAxChMkBKYuvDB6MSqkrAiCyQIZmPuOYdhJfI8NYXpQJ+cxjWi+MJu9m7h7lZMr4LSKz3sh+jKlb18R26ON7j2votmuMuvvUyE3EOqutCFmgmJwuH49qgbUY2Db68ntpwRphaFem7tWzZnY/rU+rUSJb9TXB5QBrNnLeuH49wlxDo2gl+pacpWYUQKSvs6u6Lw2PaSXTaTJb+iUu6Ftvr3LkJGNooA8uDm1bf897SZmp2bjXV+Mok2G9L/OJa43aYFLDZ9uwbXlhWZvvlrMZnqNLcZYxaRl71ISNBmzUaerRKtzLhpBUkKw/EOhfnjIp1sYboWqVPfYn7DFlkaDfaHohu/jjP9gHEen9LofOok6A9CFMH6QD5zpjvyaP3T/GsXEF3gmbMQ+0a+rp2JSD7brlCHVk3xU1oojgn5ozEVx8OjVyCV/N9imN7bOaQKArUH6XfCQOvAIPsFWWoTSFvWjmKN+T8rSvxCsw1Z59ae0EvFRneikTHnTyQ7M5w9pWMQ2MAbjWrz/GOovUXUrEaWvQyskNuBBH+rNh2oJ1EZqdkqlo5tNUrzLGb1Zgh10xFIL4oTCGtBfOTA0Tt7g60V7U4VndTlZxpEw41shbniDMbvBUEzgQGJRVj0frP2sZs5ubuIe/zHAkKhd/MunglRPyyywVcHZvEV0XFssYBEdL8IITMQ8Zc/W4WRO8O0441XeUo0WggMIYVhzCjkZEos+cVt8S7wRVvyvh0Wxovf1hkjfZ2iNSh+QmmqaMV6JhpRkCGBjVECMEZexWQRE5SZ8olPxzxLo0bQ2/dWdl6DkjFXJiVgM3lxVwmSIKPvK7zVM9bpwEiXlexC4/s+rxfjNb4OJ23jMKssaBfL93FNn1drtdxvv+hYn4tJ1e0hshVYhSH8wDpyZ8pIzLS0uB8DvZDPtV/ZPpDP4yKjRigOAL7XkAndVOBiIzxoUO/t5gupltyUxaTRVClcNiBBLjxgpyGv5oT96xrVksQj8a5/YneEQ4CVhIwRhV8Rm/i4crpAaEW2CMqtQsLvuUcQQ6phF9lHPuopcKwekxf2rXtQQNnskiIvT/5ibavaMzaRaY9Bm82kmn0cze8dLEiviE/NTZyPFZmFJBMMRW86ENlDbLqvH2OX+vFnANjTqYpxlCyfUqAZJQauHqSwtTM1sc/MFAttna7SxTyZRdly5EmGMIZSa9hkGLGdLwaNt7M0b0XlyjYup5fc1wLQAU1OSOS3oI1yM2M7DvJu/73Wg8NFzmB7bGo81kIajDnF+mco3L9sVlReVz/zJRPE06sNA7eWUrOgTAtvJ89E/lEeWDsKT9oR0dCGj+aQHLWD7vLbvM0z6tbW4hTaYDBqOZDeaBIz4mL41+XI2WfJPIg5DOqpD4sRtecLINeJkntJyjLS6gceQjURlEccmhyc68oiPMp3+OmTaAPrODIRIdC+LobMZX1aiYF1vt0QMRvep0d7UC8rnjWDJdUDNEcNQqfJ+RDw1gUjyTd835jMs2LSV48oPvFAF9s5jkLIz9vT9rSv9c+3XuLT6afZLRBj+2hi7mfi+TtSJo4s6ZvrRV47nhVvPssOvY6gX2OHQ7EyczjIGIahi8KCCA5mSTfdeTiw/eW/bQR5WQvEDvM+7Nn9Yn7TgiI654qmXad5AhGrmyDkm1BT3WX32PknAQgs/GX2jZDVF82fSTVoXOsh0gxswbqn0altC+qCo17PcYNDWhlTjInVSCxJZgNIwRCLHTGMgOkykNAgWsq26oTpDjHokGNHsZB5YiIAAG08c7mwRPB0CYq9UOR4J6C9+wTJGMyzZxbGwUXwVTIByaJH1BI3cReZQxc31CEVMSa5NBbjBG8/wTzhADAfJ2Mb7MMvpn+SFcltOPFA+W6yt1DuRbX5get6XKS8hKhdjnEIGrmdbf/vVv6/F38AehgwvxLhObbKd992+sfKvJ7xL6VBuBpj4DCkZceupW2hj9bOZVC7XWKnxX4OBzFYTaTQUl06Z/EDLDuGDaMtLctqKEhFXtzz9nsMfaNY6NJ/yOjymPOSJkakg+i1uCpWyYWOpKlXI9HTf6cWVZEtv4C3ZTrSPQqRygnGUd6fT7SM+os5uB9dnKzAKaxAWYI+blObSjU+5p7nbeE5P0VfQzDHBsM1Pc+S6Difw6H9rIE1hs0yAHsyMihaXVfBgu71XEbJ0yZWYRc8/FYaZSvJoZDGoS6YcBNfHzaNXkuNdsoinfrd+ZQ7YZmPn0CmwSZzBo+4c+87u4aEZLViI4HiqRMs3EzXS+F/zKUAOmuZ9cTOkQ6dnL8mDZQ3MYbSqapYRMMurLUbcy1WCuuDBxjxynr76cFQSVirOfTAelb5rNROEKC/ShTZWYNJUuwqDyyt7h9nP8y6ZMWBzdtPRxvZTHPkpOBolfS/0MRkCoVIQ6p7E6hEcrWGPQ2WDR4MFKlIIwAyMhmMqs9qfjEtkGvT83Y0X0IpzakvcJfBJ1084+mrMYtoYRRboJUjvkO7M0Db+1oiLD/KarzbyyNyAMK65N1UDewJz3MDtK68LwTXP8g9EadcFx0R41GjLXbMLu85JQNdpgCN8ZV/tBmjxvC08zmcKQm0DSV2m8eVDn/RYEPwPPuJoRGw7xqL/Xaa4wm1wkFfrdYXU0/5644HZ3bijq/Mn0kyv0GIzv6zK1uJkpl5QqzWy94r5hyUFBCM4xM837nhBbxvftO+w62z3OMoHNGvkMfYHRbUyER2E3O+J7wY20tX7rix9lYf0zjZmSDuUTbVJhfCwRZgOUk+vtnFpJ7ZdhrhBRqarGM72IS0BEYBFEbYrWo0wjtaZnpWiYSLVtXZEskFVMQV80uah2R1GyBZ7IxVwk9zk6RW8GoWRansHwskTv4ROB5rdt+14LjO8LpwLZjHGWQQq6eq/74adXcnTjCgGoyysTYm0njFZE9v5ZZku7EMj3FO7e/KnrK6ajXQV3WIpievDJPd2e4DZtDl+a34846u08O9yeZkZ4CUG5TiU00eS02e6QdehqORiQ1Ap0bDhl+nyPc+9/JQxaLr9nRhSCH/8f/MkPniMdXACju8n6fiZZwIiux9Y183ncD7qW1I8mmzcgjJxLpAliLbDKOmOJU1thFLFF0DK23nWo++QGvfZlRoIGgvkQOQe4CPzorOmVeBZKN3UbGYnMRXYsP3XDT9q1k7UBEUxMPQnz0YwtcbZjZzJrBnehE6nuoGAZ/Rbns8kTbq+nX3nEJAWPA8sBQ866hpFTQNHKJ0xndMkVRPjl5xg7RJZgQ8pnA/7UUYughhahvph+6uz62w+12sxGBx/turSfGaYOzAr1PMIWPy0IaT/qoK52A6Ioko+Eaeijbg+rxDI7hhEKtCPj87zi+/KpOdjuh7AVQ8tgJVBalLgyuk2sxW7hduaTTOoxxJr2+IziQyakT9Yv3nRhpHHW/7jswMm0LCVITtn+wFsqOo9Ydt7osftwDvwac8g/HNchW6YFmIC83Nikx0FuO6HqtD0bdgC859+F6+nsnqoWPPi9lpbqb5WPp2byKsRSgt8SRtM202Q876EinViZKwSATxzD7pTKIeY2aRQQ1eajGEIGwC2gYzLgPru0sgFHZki7/FRhWmF/nV32S1QC66ovITr/NIFnCV4EHPlI+xmkqWn73hnzSIV9P8ECBftPODOPb+ChNE2ZTOv0vfYhm/n8bCHIvUEwNV/wMgTDfqQd+wAzGrxVWYZWzViw+1q2e7EKeqeo+C10s05+CZ8MlIS67oslECzLeOm+iEf7FQEGbUkPGRMIG5eWUZerGdPgVkG3jrY6PXghfImqu48qEb5n9r45p0yIZCG4QJg3zFgsgO2jVURWCBYA5gQUCBlIAsogMpCL0uV4zYYzqs8iOZ1B4ipvVHkn601aiGfRGgCVQGQM/zgqYQRqh6KRbJ/fIqh9yApc0Cxs+XHIyM75tS3O6GM3MOqSEObEgvVxlWYromRi6FmEgaQmdGufJlaGISWYuNABH5NBRaq+dbbyGAhuRuo24yaEuNUX71tP/Nih2d7DfDwPg2hZxtWEb+J6O+9o3tEEHXjIMNss4bh46dKQu1paqpDrbunamP5qZgvuqav7nWWpgxZhdNuB9gfJptRAQ51SrwmHDi4/lbTUS5fQhgY4Mim4yqDHXANHG5/Bt6dwqcicNcXE2PLjJKiLbNy6Q8Z0FKT8MZnUMg7XlAQ18Yyq6nxlJFuudtB9SFdW/A/CRCsAqIPjkQCIGpNO2TLb+qYVACXyNX1iZyCSDq7BkkGvpkg4kzzgsZMtcowG3fbgxFXSPIc7B9M5c52SIQyjZgehlI1mGNKuxheRIXCEvSS8CSyjeEVYlOIh5Za0jvKJLVF1nPUXrbPfTwkJOnzQZq5mrPpE2LV7ZyxIPw8QXM2A1iU89qbqRfPkV/Uj5pqINOPrEj0WaMxvhDHyHXz6mayG/ecyVpBJBCErGbFa2V6OB0mLAZ7lNd+yp8yfUTjwYdn4gUYAtilOxDdb36mtxZ7wd6AUkRwzfGINqVhycNtdpvS31EhjKr6/AMgAIy9KmEHEYiYIAtQyRtIZOrrkDkIk3vOzs/eWtw6J6Mo/dOkgLhJE/WAjZZUYJzMsOCwI4WphT5kfCRiTju9hJGnZlcHMtuVmSAl4EIZDNkISacJr2657OXDrESEIRtVsf4rGAUjLJ+3DJfJCsNFv76Uv/G5NmfIxbxVc1W+14/ChUpNXwSIerdNypV0VzMJltA/3vYr5B97Hb5/1cy2ZieaUo87UJZa9L06ly+Z88EFNmZlL1KUmFmbvRXFAR01mfFv7RxkzRNkziEsr0jlbBdqx7Pj8tJnlHnCRSsbBix3G+HMQpTga/TQP2TjMGukIdl3ez6CGmqvMpVQo86sUZG0DSjsTVvk0MhL5dsI/Iz4/7YgnmMpIjkcGULSbyI4/mfxgBQXprNJm6sVIDC2T9xhnVhM6zd09q1O3TiKX9Rey5n5HmDRIpx5xpy/Jn7suGPgIp+3uIVQSLmtOBoHteHV+rh3PIsVns4h0MLL3WjP2+xKykev7rbHCEIDWOUCfNdNZ3uAomxVFARRBuk7h9v3+bT3iws+zbdSvqte67au48Epb0GqPje5pLtoJm5L7wuhfC0DqlrnBXTN+8ERd0s6ylcIpwbT+lBu49HvXJxOKZ+nZuMosfv6qv7xG+bgjgbP62vRNEi9rCECCQz/6EvH9eEl/z8jYTxmolosOBIgkmE2m8CR1rwAvk8hU+pogKBugo4FsQ58g0iDOKBO/kmf6H76zQT2JMvO8tG0QDUNl/YMjP7QhkWcXSAvxZAC/83KmgQGzAuEzk7zu6JqkrFcoW8GY/axfc2YLMQcTprjE0mkPk5QW8X4zTJfJPWDrvWJi5xQU3teNme3/aCxqPbasJImzM1o4h2RqAgehrderzXr/DtPkEh/8jd8uG3DP8jX9WpldC4LGSlSs3hyC1fVEiKCvnFtRNX01SyHsaktrF76BA12rGj8F59KDhHUFt0WXWBHaEl8qnSg4YLMd8R18+nlG0MOIBVibG1Wl6lbpAaCMM4IwIyPjiFnnp2wsLvOZ/ol2BNBOlDpLY489dPoKAHTWKUZ21v1i1jkOwojLd5yKljSDgyaUseOVwrFtBIJJDMZ1GqDsVe1FPZEovlYqx3vVUYnpjhIy4x5Hs6UPchyX7+gHec/u9Nhqa6T0EQK0xEfgQGJVUObRTIFX6h2XOBP5jt3mGYxvXRlX534T4ew7ftfMeYJU4BFMPoXFz4Jx+JwwWASHQLAamLed33kZ2KlPs5qymlUtBnBYZ2tX4YzGsn2eZdqfDDnKBSdUZd8pmvvei1k3owIyo1Ri2cSpZaod67auSqXhIvC+/Zi5BJSv9sWJJDud/j/Vyh3q8JCIsAAAAABJRU5ErkJggg==;" vertex="1" parent="1">
          <mxGeometry x="120" y="320" width="162" height="157" as="geometry" />
        </mxCell>
        <mxCell id="4mec1UbQvx5-29AByoIj-12" style="edgeStyle=orthogonalEdgeStyle;rounded=0;orthogonalLoop=1;jettySize=auto;html=1;entryX=0;entryY=0.5;entryDx=0;entryDy=0;fontSize=18;" edge="1" parent="1" source="4mec1UbQvx5-29AByoIj-6" target="4mec1UbQvx5-29AByoIj-10">
          <mxGeometry relative="1" as="geometry" />
        </mxCell>
        <mxCell id="4mec1UbQvx5-29AByoIj-13" style="edgeStyle=orthogonalEdgeStyle;rounded=0;orthogonalLoop=1;jettySize=auto;html=1;entryX=0;entryY=0.5;entryDx=0;entryDy=0;fontSize=18;" edge="1" parent="1" source="4mec1UbQvx5-29AByoIj-6" target="4mec1UbQvx5-29AByoIj-11">
          <mxGeometry relative="1" as="geometry" />
        </mxCell>
        <mxCell id="4mec1UbQvx5-29AByoIj-6" value="&lt;font style=&quot;font-size: 18px;&quot;&gt;&lt;b&gt;&lt;i&gt;Student: YOLOv5s&lt;/i&gt;&lt;/b&gt;&lt;/font&gt;" style="rounded=1;whiteSpace=wrap;html=1;fillColor=#bac8d3;strokeColor=#23445d;" vertex="1" parent="1">
          <mxGeometry x="400" y="490" width="320" height="60" as="geometry" />
        </mxCell>
        <mxCell id="4mec1UbQvx5-29AByoIj-15" value="" style="edgeStyle=orthogonalEdgeStyle;rounded=0;orthogonalLoop=1;jettySize=auto;html=1;fontSize=18;" edge="1" parent="1" source="4mec1UbQvx5-29AByoIj-7" target="4mec1UbQvx5-29AByoIj-14">
          <mxGeometry relative="1" as="geometry" />
        </mxCell>
        <mxCell id="4mec1UbQvx5-29AByoIj-7" value="&lt;font style=&quot;font-size: 18px;&quot;&gt;&lt;b&gt;&lt;i&gt;Teacher: YOLOv5m&lt;/i&gt;&lt;/b&gt;&lt;/font&gt;" style="rounded=1;whiteSpace=wrap;html=1;fillColor=#b1ddf0;strokeColor=#10739e;" vertex="1" parent="1">
          <mxGeometry x="400" y="250" width="320" height="60" as="geometry" />
        </mxCell>
        <mxCell id="4mec1UbQvx5-29AByoIj-19" value="" style="edgeStyle=orthogonalEdgeStyle;rounded=0;orthogonalLoop=1;jettySize=auto;html=1;fontSize=18;" edge="1" parent="1" source="4mec1UbQvx5-29AByoIj-10" target="4mec1UbQvx5-29AByoIj-18">
          <mxGeometry relative="1" as="geometry" />
        </mxCell>
        <mxCell id="4mec1UbQvx5-29AByoIj-10" value="&lt;font style=&quot;font-size: 18px;&quot;&gt;&lt;b&gt;&lt;i&gt;Softmax (T=20)&lt;/i&gt;&lt;/b&gt;&lt;/font&gt;" style="rounded=1;whiteSpace=wrap;html=1;fillColor=#f9f7ed;strokeColor=#36393d;" vertex="1" parent="1">
          <mxGeometry x="800" y="423.5" width="140" height="60" as="geometry" />
        </mxCell>
        <mxCell id="4mec1UbQvx5-29AByoIj-24" value="" style="edgeStyle=orthogonalEdgeStyle;rounded=0;orthogonalLoop=1;jettySize=auto;html=1;fontSize=18;" edge="1" parent="1" source="4mec1UbQvx5-29AByoIj-11" target="4mec1UbQvx5-29AByoIj-23">
          <mxGeometry relative="1" as="geometry" />
        </mxCell>
        <mxCell id="4mec1UbQvx5-29AByoIj-11" value="&lt;font style=&quot;font-size: 18px;&quot;&gt;&lt;b&gt;&lt;i&gt;Softmax (T=1)&lt;/i&gt;&lt;/b&gt;&lt;/font&gt;" style="rounded=1;whiteSpace=wrap;html=1;fillColor=#f9f7ed;strokeColor=#36393d;" vertex="1" parent="1">
          <mxGeometry x="800" y="556.5" width="140" height="60" as="geometry" />
        </mxCell>
        <mxCell id="4mec1UbQvx5-29AByoIj-17" style="edgeStyle=orthogonalEdgeStyle;rounded=0;orthogonalLoop=1;jettySize=auto;html=1;entryX=0;entryY=0.5;entryDx=0;entryDy=0;fontSize=18;" edge="1" parent="1" source="4mec1UbQvx5-29AByoIj-14" target="4mec1UbQvx5-29AByoIj-16">
          <mxGeometry relative="1" as="geometry" />
        </mxCell>
        <mxCell id="4mec1UbQvx5-29AByoIj-14" value="&lt;font style=&quot;font-size: 18px;&quot;&gt;&lt;b&gt;&lt;i&gt;Softmax (T=20)&lt;/i&gt;&lt;/b&gt;&lt;/font&gt;" style="rounded=1;whiteSpace=wrap;html=1;fillColor=#f9f7ed;strokeColor=#36393d;" vertex="1" parent="1">
          <mxGeometry x="780" y="250" width="140" height="60" as="geometry" />
        </mxCell>
        <mxCell id="4mec1UbQvx5-29AByoIj-30" style="edgeStyle=orthogonalEdgeStyle;rounded=0;orthogonalLoop=1;jettySize=auto;html=1;entryX=0.5;entryY=0;entryDx=0;entryDy=0;fontSize=18;" edge="1" parent="1" source="4mec1UbQvx5-29AByoIj-16" target="4mec1UbQvx5-29AByoIj-20">
          <mxGeometry relative="1" as="geometry" />
        </mxCell>
        <mxCell id="4mec1UbQvx5-29AByoIj-16" value="&lt;font style=&quot;font-size: 18px;&quot;&gt;&lt;b&gt;&lt;i&gt;soft &lt;br&gt;labels&lt;/i&gt;&lt;/b&gt;&lt;/font&gt;" style="rounded=1;whiteSpace=wrap;html=1;fillColor=#ffcc99;strokeColor=#36393d;" vertex="1" parent="1">
          <mxGeometry x="1000" y="250" width="130" height="60" as="geometry" />
        </mxCell>
        <mxCell id="4mec1UbQvx5-29AByoIj-29" style="edgeStyle=orthogonalEdgeStyle;rounded=0;orthogonalLoop=1;jettySize=auto;html=1;fontSize=18;" edge="1" parent="1" source="4mec1UbQvx5-29AByoIj-18">
          <mxGeometry relative="1" as="geometry">
            <mxPoint x="1239.9999999999995" y="400" as="targetPoint" />
          </mxGeometry>
        </mxCell>
        <mxCell id="4mec1UbQvx5-29AByoIj-18" value="&lt;font style=&quot;font-size: 18px;&quot;&gt;&lt;b&gt;&lt;i&gt;soft predictions&lt;/i&gt;&lt;/b&gt;&lt;/font&gt;" style="rounded=1;whiteSpace=wrap;html=1;fillColor=#ffcc99;strokeColor=#36393d;" vertex="1" parent="1">
          <mxGeometry x="1000" y="423.5" width="130" height="60" as="geometry" />
        </mxCell>
        <mxCell id="4mec1UbQvx5-29AByoIj-20" value="&lt;font style=&quot;font-size: 18px;&quot;&gt;&lt;b&gt;&lt;i&gt;teacher&lt;br&gt;loss&lt;/i&gt;&lt;/b&gt;&lt;/font&gt;" style="rounded=1;whiteSpace=wrap;html=1;fillColor=#fad9d5;strokeColor=#ae4132;" vertex="1" parent="1">
          <mxGeometry x="1180" y="337" width="130" height="60" as="geometry" />
        </mxCell>
        <mxCell id="4mec1UbQvx5-29AByoIj-28" style="edgeStyle=orthogonalEdgeStyle;rounded=0;orthogonalLoop=1;jettySize=auto;html=1;entryX=0.5;entryY=0;entryDx=0;entryDy=0;fontSize=18;" edge="1" parent="1" source="4mec1UbQvx5-29AByoIj-23" target="4mec1UbQvx5-29AByoIj-26">
          <mxGeometry relative="1" as="geometry" />
        </mxCell>
        <mxCell id="4mec1UbQvx5-29AByoIj-23" value="&lt;font style=&quot;font-size: 18px;&quot;&gt;&lt;b&gt;&lt;i&gt;hard predictions&lt;/i&gt;&lt;/b&gt;&lt;/font&gt;" style="rounded=1;whiteSpace=wrap;html=1;fillColor=#ffcc99;strokeColor=#36393d;" vertex="1" parent="1">
          <mxGeometry x="1000" y="556.5" width="130" height="60" as="geometry" />
        </mxCell>
        <mxCell id="4mec1UbQvx5-29AByoIj-27" style="edgeStyle=orthogonalEdgeStyle;rounded=0;orthogonalLoop=1;jettySize=auto;html=1;entryX=0.5;entryY=1;entryDx=0;entryDy=0;fontSize=18;" edge="1" parent="1" source="4mec1UbQvx5-29AByoIj-25" target="4mec1UbQvx5-29AByoIj-26">
          <mxGeometry relative="1" as="geometry" />
        </mxCell>
        <mxCell id="4mec1UbQvx5-29AByoIj-25" value="&lt;font style=&quot;font-size: 18px;&quot;&gt;&lt;b&gt;&lt;i&gt;hard &lt;br&gt;labels&lt;/i&gt;&lt;/b&gt;&lt;/font&gt;" style="rounded=1;whiteSpace=wrap;html=1;fillColor=#eeeeee;strokeColor=#36393d;" vertex="1" parent="1">
          <mxGeometry x="1000" y="720" width="130" height="60" as="geometry" />
        </mxCell>
        <mxCell id="4mec1UbQvx5-29AByoIj-26" value="&lt;font style=&quot;font-size: 18px;&quot;&gt;&lt;b&gt;&lt;i&gt;student&lt;br&gt;loss&lt;/i&gt;&lt;/b&gt;&lt;/font&gt;" style="rounded=1;whiteSpace=wrap;html=1;fillColor=#fad9d5;strokeColor=#ae4132;" vertex="1" parent="1">
          <mxGeometry x="1180" y="640" width="130" height="60" as="geometry" />
        </mxCell>
        <mxCell id="4mec1UbQvx5-29AByoIj-31" value="&lt;b&gt;&lt;i&gt;真实标记的标签&lt;/i&gt;&lt;/b&gt;" style="text;html=1;align=center;verticalAlign=middle;resizable=0;points=[];autosize=1;strokeColor=none;fillColor=none;fontSize=18;" vertex="1" parent="1">
          <mxGeometry x="990" y="780" width="150" height="40" as="geometry" />
        </mxCell>
      </root>
    </mxGraphModel>
  </diagram>
</mxfile>
